<mxfile host="app.diagrams.net" modified="2023-04-04T12:11:22.010Z" agent="Mozilla/5.0 (Windows NT 10.0; Win64; x64) AppleWebKit/537.36 (KHTML, like Gecko) Chrome/111.0.0.0 Safari/537.36" etag="vZgr_hBJ2UZ6BzlNpRHp" version="21.1.2" type="github">
  <diagram id="2f404044-711c-603c-8f00-f6bb4c023d3c" name="Page-1">
    <mxGraphModel dx="3563" dy="2167" grid="1" gridSize="10" guides="1" tooltips="1" connect="1" arrows="1" fold="1" page="1" pageScale="1" pageWidth="827" pageHeight="1169" background="none" math="0" shadow="0">
      <root>
        <mxCell id="0" />
        <mxCell id="1" parent="0" />
        <mxCell id="lHgg8_kq4FCSIR8R8PC4-287" value="" style="rounded=1;whiteSpace=wrap;html=1;verticalAlign=middle;" vertex="1" parent="1">
          <mxGeometry x="-1193" y="60" width="170" height="167.5" as="geometry" />
        </mxCell>
        <mxCell id="lHgg8_kq4FCSIR8R8PC4-255" value="Zone Geo" style="text;html=1;strokeColor=none;fillColor=none;align=center;verticalAlign=middle;whiteSpace=wrap;rounded=0;" vertex="1" parent="1">
          <mxGeometry x="-943.5" y="-150" width="60" height="30" as="geometry" />
        </mxCell>
        <mxCell id="lHgg8_kq4FCSIR8R8PC4-254" value="" style="rounded=1;whiteSpace=wrap;html=1;" vertex="1" parent="1">
          <mxGeometry x="-943" y="-220" width="60" height="70" as="geometry" />
        </mxCell>
        <mxCell id="lHgg8_kq4FCSIR8R8PC4-252" value="" style="rounded=1;whiteSpace=wrap;html=1;" vertex="1" parent="1">
          <mxGeometry x="-1213" y="-240" width="90" height="130" as="geometry" />
        </mxCell>
        <mxCell id="lHgg8_kq4FCSIR8R8PC4-248" value="" style="rounded=1;whiteSpace=wrap;html=1;" vertex="1" parent="1">
          <mxGeometry x="-1453" y="-221" width="60" height="70" as="geometry" />
        </mxCell>
        <mxCell id="HCqcwdpQIchrRAqbH9Rb-246" value="" style="rounded=0;whiteSpace=wrap;html=1;fontSize=16;strokeColor=#2C67DD;" parent="1" vertex="1">
          <mxGeometry x="-1645" y="1040" width="855" height="480" as="geometry" />
        </mxCell>
        <mxCell id="HCqcwdpQIchrRAqbH9Rb-243" value="" style="rounded=0;whiteSpace=wrap;html=1;fontSize=16;strokeColor=#006633;" parent="1" vertex="1">
          <mxGeometry x="-230" y="582" width="700" height="1200" as="geometry" />
        </mxCell>
        <mxCell id="HCqcwdpQIchrRAqbH9Rb-239" value="" style="rounded=0;whiteSpace=wrap;html=1;fontSize=16;strokeColor=#009900;" parent="1" vertex="1">
          <mxGeometry x="-220" y="962" width="680" height="810" as="geometry" />
        </mxCell>
        <mxCell id="HCqcwdpQIchrRAqbH9Rb-209" value="" style="rounded=0;whiteSpace=wrap;html=1;fontSize=16;movable=1;resizable=1;rotatable=1;deletable=1;editable=1;locked=0;connectable=1;strokeColor=#FF8000;strokeWidth=2;" parent="1" vertex="1">
          <mxGeometry x="-210" y="972" width="660" height="680" as="geometry" />
        </mxCell>
        <mxCell id="HCqcwdpQIchrRAqbH9Rb-232" value="" style="rounded=0;whiteSpace=wrap;html=1;fontSize=16;fillColor=none;fillStyle=zigzag-line;opacity=90;dashed=1;strokeWidth=2;strokeColor=#3399FF;" parent="1" vertex="1">
          <mxGeometry x="81" y="992" width="265.5" height="216" as="geometry" />
        </mxCell>
        <mxCell id="63" value="" style="swimlane;shadow=0;strokeColor=#4277BB;fillColor=#ffffff;fontColor=none;align=right;startSize=0;collapsible=0;noLabel=1;strokeWidth=3;" parent="1" vertex="1">
          <mxGeometry x="-40" y="-690" width="1580" height="951" as="geometry" />
        </mxCell>
        <mxCell id="98" value="" style="swimlane;shadow=0;labelBackgroundColor=#007FFF;strokeColor=#4277BB;fillColor=none;gradientColor=none;fontColor=#000000;align=right;collapsible=0;startSize=0;strokeWidth=3;" parent="63" vertex="1">
          <mxGeometry x="838" y="771" width="142" height="159" as="geometry" />
        </mxCell>
        <mxCell id="180" value="PROVISION" style="aspect=fixed;perimeter=ellipsePerimeter;html=1;align=center;shadow=0;dashed=0;image;image=img/lib/ibm/devops/provision.svg;labelBackgroundColor=none;strokeColor=#4277BB;strokeWidth=2;fillColor=none;gradientColor=none;fontSize=12;fontColor=#4277BB;" parent="98" vertex="1">
          <mxGeometry x="42" y="44" width="60" height="60" as="geometry" />
        </mxCell>
        <mxCell id="184" value="INFRASTRUCTURE&lt;div&gt;AUTOMATION&lt;/div&gt;" style="text;html=1;align=left;verticalAlign=middle;fontColor=#4277BB;shadow=0;dashed=0;strokeColor=none;fillColor=none;labelBackgroundColor=none;fontStyle=1;fontSize=12;spacingLeft=5;" parent="98" vertex="1">
          <mxGeometry x="7" y="10" width="123" height="20" as="geometry" />
        </mxCell>
        <mxCell id="102" value="PUBLIC CLOUD" style="text;html=1;align=left;verticalAlign=middle;fontColor=#4277BB;shadow=0;dashed=0;strokeColor=none;fillColor=none;labelBackgroundColor=none;fontStyle=1;fontSize=16;spacingLeft=5;" parent="63" vertex="1">
          <mxGeometry y="10" width="150" height="20" as="geometry" />
        </mxCell>
        <mxCell id="103" value="" style="line;strokeWidth=3;direction=south;html=1;shadow=0;labelBackgroundColor=none;fillColor=none;gradientColor=none;fontSize=12;fontColor=#4277BB;align=right;strokeColor=#4277BB;" parent="63" vertex="1">
          <mxGeometry x="175" y="1" width="10" height="169" as="geometry" />
        </mxCell>
        <mxCell id="106" value="" style="line;strokeWidth=3;direction=south;html=1;shadow=0;labelBackgroundColor=none;fillColor=none;gradientColor=none;fontSize=12;fontColor=#4277BB;align=right;strokeColor=#4277BB;" parent="63" vertex="1">
          <mxGeometry x="1410" width="10" height="430" as="geometry" />
        </mxCell>
        <mxCell id="107" value="IBM CLOUD PRIVATE" style="text;html=1;align=left;verticalAlign=middle;fontColor=#4277BB;shadow=0;dashed=0;strokeColor=none;fillColor=none;labelBackgroundColor=none;fontStyle=1;fontSize=16;spacingLeft=5;" parent="63" vertex="1">
          <mxGeometry x="190" y="10" width="150" height="20" as="geometry" />
        </mxCell>
        <mxCell id="108" value="ENTERPRISE" style="text;html=1;align=left;verticalAlign=middle;fontColor=#4277BB;shadow=0;dashed=0;strokeColor=none;fillColor=none;labelBackgroundColor=none;fontStyle=1;fontSize=16;spacingLeft=5;" parent="63" vertex="1">
          <mxGeometry x="1420" y="10" width="140" height="20" as="geometry" />
        </mxCell>
        <mxCell id="109" value="Application component" style="rounded=0;html=1;shadow=0;labelBackgroundColor=none;strokeColor=none;strokeWidth=2;fillColor=#EBC01A;gradientColor=none;fontSize=12;fontColor=#4277BB;align=left;labelPosition=right;verticalLabelPosition=middle;verticalAlign=middle;spacingLeft=5;" parent="63" vertex="1">
          <mxGeometry x="15" y="781" width="20" height="10" as="geometry" />
        </mxCell>
        <mxCell id="110" value="Infrastructure services" style="rounded=0;html=1;shadow=0;labelBackgroundColor=none;strokeColor=none;strokeWidth=2;fillColor=#8DC642;gradientColor=none;fontSize=12;fontColor=#4277BB;align=left;labelPosition=right;verticalLabelPosition=middle;verticalAlign=middle;spacingLeft=5;" parent="63" vertex="1">
          <mxGeometry x="15" y="801" width="20" height="10" as="geometry" />
        </mxCell>
        <mxCell id="111" value="Management" style="rounded=0;html=1;shadow=0;labelBackgroundColor=none;strokeColor=none;strokeWidth=2;fillColor=#0DB39D;gradientColor=none;fontSize=12;fontColor=#4277BB;align=left;labelPosition=right;verticalLabelPosition=middle;verticalAlign=middle;spacingLeft=5;" parent="63" vertex="1">
          <mxGeometry x="15" y="821" width="20" height="10" as="geometry" />
        </mxCell>
        <mxCell id="112" value="Data store" style="rounded=0;html=1;shadow=0;labelBackgroundColor=none;strokeColor=none;strokeWidth=2;fillColor=#335D81;gradientColor=none;fontSize=12;fontColor=#4277BB;align=left;labelPosition=right;verticalLabelPosition=middle;verticalAlign=middle;spacingLeft=5;" parent="63" vertex="1">
          <mxGeometry x="15" y="841" width="20" height="10" as="geometry" />
        </mxCell>
        <mxCell id="113" value="Analytics" style="rounded=0;html=1;shadow=0;labelBackgroundColor=none;strokeColor=none;strokeWidth=2;fillColor=#744399;gradientColor=none;fontSize=12;fontColor=#4277BB;align=left;labelPosition=right;verticalLabelPosition=middle;verticalAlign=middle;spacingLeft=5;" parent="63" vertex="1">
          <mxGeometry x="15" y="861" width="20" height="10" as="geometry" />
        </mxCell>
        <mxCell id="114" value="Device capabilities" style="rounded=0;html=1;shadow=0;labelBackgroundColor=none;strokeColor=none;strokeWidth=2;fillColor=#A72870;gradientColor=none;fontSize=12;fontColor=#4277BB;align=left;labelPosition=right;verticalLabelPosition=middle;verticalAlign=middle;spacingLeft=5;" parent="63" vertex="1">
          <mxGeometry x="15" y="881" width="20" height="10" as="geometry" />
        </mxCell>
        <mxCell id="115" value="Security" style="rounded=0;html=1;shadow=0;labelBackgroundColor=none;strokeColor=none;strokeWidth=2;fillColor=#E52134;gradientColor=none;fontSize=12;fontColor=#4277BB;align=left;labelPosition=right;verticalLabelPosition=middle;verticalAlign=middle;spacingLeft=5;" parent="63" vertex="1">
          <mxGeometry x="15" y="901" width="20" height="10" as="geometry" />
        </mxCell>
        <mxCell id="117" value="LEGEND" style="text;html=1;align=left;verticalAlign=middle;fontColor=#4277BB;shadow=0;dashed=0;strokeColor=none;fillColor=none;labelBackgroundColor=none;fontStyle=1;fontSize=14;spacingLeft=0;" parent="63" vertex="1">
          <mxGeometry x="15" y="751" width="150" height="20" as="geometry" />
        </mxCell>
        <mxCell id="189" style="edgeStyle=orthogonalEdgeStyle;rounded=0;html=1;labelBackgroundColor=#ffffff;startArrow=classic;startFill=1;startSize=4;endSize=4;jettySize=auto;orthogonalLoop=1;strokeColor=#4277BB;strokeWidth=2;fontSize=12;fontColor=#4277BB;" parent="63" target="119" edge="1">
          <mxGeometry relative="1" as="geometry">
            <mxPoint x="270" y="219.71428571428578" as="sourcePoint" />
            <Array as="points">
              <mxPoint x="250" y="220" />
              <mxPoint x="250" y="220" />
            </Array>
          </mxGeometry>
        </mxCell>
        <mxCell id="123" value="" style="swimlane;shadow=0;labelBackgroundColor=#007FFF;strokeColor=#4277BB;fillColor=none;gradientColor=none;fontColor=#000000;align=right;collapsible=0;startSize=0;strokeWidth=3;" parent="63" vertex="1">
          <mxGeometry x="270" y="70" width="880" height="300" as="geometry" />
        </mxCell>
        <mxCell id="125" value="" style="swimlane;shadow=0;labelBackgroundColor=#007FFF;strokeColor=#4277BB;fillColor=none;gradientColor=none;fontColor=#000000;align=right;collapsible=0;startSize=0;strokeWidth=3;" parent="123" vertex="1">
          <mxGeometry x="10" y="50" width="220" height="240" as="geometry" />
        </mxCell>
        <mxCell id="192" style="rounded=0;html=1;labelBackgroundColor=#ffffff;startArrow=none;startFill=0;startSize=4;endSize=4;jettySize=auto;orthogonalLoop=1;strokeColor=#4277BB;strokeWidth=2;fontSize=12;fontColor=#4277BB;endArrow=none;endFill=0;" parent="125" source="120" target="127" edge="1">
          <mxGeometry relative="1" as="geometry" />
        </mxCell>
        <mxCell id="193" style="edgeStyle=none;rounded=0;html=1;labelBackgroundColor=#ffffff;startArrow=none;startFill=0;startSize=4;endArrow=none;endFill=0;endSize=4;jettySize=auto;orthogonalLoop=1;strokeColor=#4277BB;strokeWidth=2;fontSize=12;fontColor=#4277BB;" parent="125" source="120" target="128" edge="1">
          <mxGeometry relative="1" as="geometry" />
        </mxCell>
        <mxCell id="120" value="MICROSERVICE" style="aspect=fixed;perimeter=ellipsePerimeter;html=1;align=center;shadow=0;dashed=0;image;image=img/lib/ibm/applications/enterprise_applications.svg;labelBackgroundColor=#ffffff;strokeColor=#4277BB;strokeWidth=2;fillColor=#E52134;gradientColor=none;fontSize=10;fontColor=#4277BB;verticalAlign=top;" parent="125" vertex="1">
          <mxGeometry x="45" y="94" width="30" height="30" as="geometry" />
        </mxCell>
        <mxCell id="194" style="edgeStyle=none;rounded=0;html=1;labelBackgroundColor=#ffffff;startArrow=none;startFill=0;startSize=4;endArrow=none;endFill=0;endSize=4;jettySize=auto;orthogonalLoop=1;strokeColor=#4277BB;strokeWidth=2;fontSize=12;fontColor=#4277BB;" parent="125" source="128" target="127" edge="1">
          <mxGeometry relative="1" as="geometry" />
        </mxCell>
        <mxCell id="128" value="MICROSERVICE" style="aspect=fixed;perimeter=ellipsePerimeter;html=1;align=center;shadow=0;dashed=0;image;image=img/lib/ibm/applications/enterprise_applications.svg;labelBackgroundColor=#ffffff;strokeColor=#4277BB;strokeWidth=2;fillColor=#E52134;gradientColor=none;fontSize=10;fontColor=#4277BB;verticalAlign=top;" parent="125" vertex="1">
          <mxGeometry x="153" y="146" width="30" height="30" as="geometry" />
        </mxCell>
        <mxCell id="127" value="MICROSERVICE" style="aspect=fixed;perimeter=ellipsePerimeter;html=1;align=center;shadow=0;dashed=0;image;image=img/lib/ibm/applications/enterprise_applications.svg;labelBackgroundColor=#ffffff;strokeColor=#4277BB;strokeWidth=2;fillColor=#E52134;gradientColor=none;fontSize=10;fontColor=#4277BB;verticalAlign=top;" parent="125" vertex="1">
          <mxGeometry x="153" y="39" width="30" height="30" as="geometry" />
        </mxCell>
        <mxCell id="140" value="CLOUD NATIVE" style="text;html=1;align=left;verticalAlign=middle;fontColor=#4277BB;shadow=0;dashed=0;strokeColor=none;fillColor=none;labelBackgroundColor=none;fontStyle=1;fontSize=12;spacingLeft=5;" parent="125" vertex="1">
          <mxGeometry x="6" y="8.00000000000025" width="150" height="20" as="geometry" />
        </mxCell>
        <mxCell id="126" value="" style="swimlane;shadow=0;labelBackgroundColor=#007FFF;strokeColor=#4277BB;fillColor=none;gradientColor=none;fontColor=#000000;align=right;collapsible=0;startSize=0;strokeWidth=3;" parent="123" vertex="1">
          <mxGeometry x="242" y="50" width="236" height="240" as="geometry" />
        </mxCell>
        <mxCell id="122" value="APP&lt;div&gt;SERVER&lt;/div&gt;" style="aspect=fixed;perimeter=ellipsePerimeter;html=1;align=center;shadow=0;dashed=0;image;image=img/lib/ibm/applications/app_server.svg;labelBackgroundColor=none;strokeColor=#4277BB;strokeWidth=2;fillColor=#E52134;gradientColor=none;fontSize=12;fontColor=#4277BB;verticalAlign=top;" parent="126" vertex="1">
          <mxGeometry x="39" y="37" width="60" height="60" as="geometry" />
        </mxCell>
        <mxCell id="121" value="BLOCKCHAIN" style="aspect=fixed;perimeter=ellipsePerimeter;html=1;align=center;shadow=0;dashed=0;image;image=img/lib/ibm/blockchain/blockchain.svg;labelBackgroundColor=none;strokeColor=#4277BB;strokeWidth=2;fillColor=#E52134;gradientColor=none;fontSize=12;fontColor=#4277BB;verticalAlign=top;" parent="126" vertex="1">
          <mxGeometry x="148" y="37" width="60" height="60" as="geometry" />
        </mxCell>
        <mxCell id="131" value="TRANSFORMATION&lt;div&gt;&amp;amp; CONNECTIVITY&lt;/div&gt;" style="aspect=fixed;perimeter=ellipsePerimeter;html=1;align=center;shadow=0;dashed=0;image;image=img/lib/ibm/infrastructure/transformation_connectivity.svg;labelBackgroundColor=none;strokeColor=#4277BB;strokeWidth=2;fillColor=#E52134;gradientColor=none;fontSize=12;fontColor=#4277BB;verticalAlign=top;" parent="126" vertex="1">
          <mxGeometry x="39" y="138" width="60" height="60" as="geometry" />
        </mxCell>
        <mxCell id="132" value="OTHER&lt;div&gt;WORKLOADS&lt;/div&gt;" style="aspect=fixed;perimeter=ellipsePerimeter;html=1;align=center;shadow=0;dashed=0;image;image=img/lib/ibm/data/data_services.svg;labelBackgroundColor=none;strokeColor=#4277BB;strokeWidth=2;fillColor=#E52134;gradientColor=none;fontSize=12;fontColor=#4277BB;verticalAlign=top;" parent="126" vertex="1">
          <mxGeometry x="148" y="138" width="60" height="60" as="geometry" />
        </mxCell>
        <mxCell id="141" value="CONTAINERIZED MIDDLEWARE" style="text;html=1;align=left;verticalAlign=middle;fontColor=#4277BB;shadow=0;dashed=0;strokeColor=none;fillColor=none;labelBackgroundColor=none;fontStyle=1;fontSize=12;spacingLeft=5;" parent="126" vertex="1">
          <mxGeometry x="5" y="8" width="195" height="20" as="geometry" />
        </mxCell>
        <mxCell id="130" value="" style="swimlane;shadow=0;labelBackgroundColor=#007FFF;strokeColor=#4277BB;fillColor=none;gradientColor=none;fontColor=#000000;align=right;collapsible=0;startSize=0;strokeWidth=3;" parent="123" vertex="1">
          <mxGeometry x="491" y="50" width="159" height="240" as="geometry" />
        </mxCell>
        <mxCell id="133" value="CACHES" style="aspect=fixed;perimeter=ellipsePerimeter;html=1;align=center;shadow=0;dashed=0;image;image=img/lib/ibm/data/caches.svg;labelBackgroundColor=none;strokeColor=#4277BB;strokeWidth=2;fillColor=#E52134;gradientColor=none;fontSize=12;fontColor=#4277BB;" parent="130" vertex="1">
          <mxGeometry x="9" y="37" width="60" height="60" as="geometry" />
        </mxCell>
        <mxCell id="134" value="DATABASES" style="aspect=fixed;perimeter=ellipsePerimeter;html=1;align=center;shadow=0;dashed=0;image;image=img/lib/ibm/data/data_services.svg;labelBackgroundColor=none;strokeColor=#4277BB;strokeWidth=2;fillColor=#E52134;gradientColor=none;fontSize=12;fontColor=#4277BB;" parent="130" vertex="1">
          <mxGeometry x="89" y="37" width="60" height="60" as="geometry" />
        </mxCell>
        <mxCell id="135" value="ANALYTICS" style="aspect=fixed;perimeter=ellipsePerimeter;html=1;align=center;shadow=0;dashed=0;image;image=img/lib/ibm/analytics/analytics.svg;labelBackgroundColor=none;strokeColor=#4277BB;strokeWidth=2;fillColor=#E52134;gradientColor=none;fontSize=12;fontColor=#4277BB;" parent="130" vertex="1">
          <mxGeometry x="47" y="138" width="60" height="60" as="geometry" />
        </mxCell>
        <mxCell id="142" value="DATA WORKLOADS" style="text;html=1;align=left;verticalAlign=middle;fontColor=#4277BB;shadow=0;dashed=0;strokeColor=none;fillColor=none;labelBackgroundColor=none;fontStyle=1;fontSize=12;spacingLeft=5;" parent="130" vertex="1">
          <mxGeometry x="7" y="8" width="150" height="20" as="geometry" />
        </mxCell>
        <mxCell id="187" style="edgeStyle=orthogonalEdgeStyle;rounded=0;html=1;exitX=0.75;exitY=0;entryX=0.75;entryY=0;labelBackgroundColor=#ffffff;startArrow=classic;startFill=1;startSize=4;endSize=4;jettySize=auto;orthogonalLoop=1;strokeColor=#EDC11C;strokeWidth=2;fontSize=12;fontColor=#4277BB;" parent="130" source="142" target="142" edge="1">
          <mxGeometry relative="1" as="geometry" />
        </mxCell>
        <mxCell id="136" value="" style="swimlane;shadow=0;labelBackgroundColor=#007FFF;strokeColor=#4277BB;fillColor=none;gradientColor=none;fontColor=#000000;align=right;collapsible=0;startSize=0;strokeWidth=3;" parent="123" vertex="1">
          <mxGeometry x="661" y="50" width="199" height="240" as="geometry" />
        </mxCell>
        <mxCell id="137" value="AUTOMATION&lt;div&gt;TOOLS&lt;/div&gt;" style="aspect=fixed;perimeter=ellipsePerimeter;html=1;align=center;shadow=0;dashed=0;image;image=img/lib/ibm/applications/automation_tools.svg;labelBackgroundColor=none;strokeColor=#4277BB;strokeWidth=2;fillColor=#E52134;gradientColor=none;fontSize=12;fontColor=#4277BB;" parent="136" vertex="1">
          <mxGeometry x="27" y="37" width="60" height="60" as="geometry" />
        </mxCell>
        <mxCell id="138" value="OPENSOURCE&lt;div&gt;TOOLS&lt;/div&gt;" style="aspect=fixed;perimeter=ellipsePerimeter;html=1;align=center;shadow=0;dashed=0;image;image=img/lib/ibm/applications/open_source_tools.svg;labelBackgroundColor=none;strokeColor=#4277BB;strokeWidth=2;fillColor=#E52134;gradientColor=none;fontSize=12;fontColor=#4277BB;" parent="136" vertex="1">
          <mxGeometry x="119" y="37" width="60" height="60" as="geometry" />
        </mxCell>
        <mxCell id="143" value="DEVOPS &amp;amp; TOOLS" style="text;html=1;align=left;verticalAlign=middle;fontColor=#4277BB;shadow=0;dashed=0;strokeColor=none;fillColor=none;labelBackgroundColor=none;fontStyle=1;fontSize=12;spacingLeft=5;" parent="136" vertex="1">
          <mxGeometry x="7" y="8" width="150" height="20" as="geometry" />
        </mxCell>
        <mxCell id="186" value="WORKLOADS" style="text;html=1;align=left;verticalAlign=middle;fontColor=#4277BB;shadow=0;dashed=0;strokeColor=none;fillColor=none;labelBackgroundColor=none;fontStyle=1;fontSize=14;spacingLeft=5;" parent="123" vertex="1">
          <mxGeometry x="20" y="11" width="150" height="20" as="geometry" />
        </mxCell>
        <mxCell id="118" value="COGNITIVE&lt;div&gt;SERVICES&lt;/div&gt;" style="aspect=fixed;perimeter=ellipsePerimeter;html=1;align=center;shadow=0;image;image=img/lib/ibm/miscellaneous/cognitive_services.svg;labelBackgroundColor=none;strokeColor=none;strokeWidth=2;fillColor=#808080;gradientColor=none;fontSize=12;fontColor=#4277BB;rounded=0;verticalAlign=top;spacingLeft=5;" parent="63" vertex="1">
          <mxGeometry x="45" y="190.00000000000006" width="60" height="60" as="geometry" />
        </mxCell>
        <mxCell id="188" style="edgeStyle=orthogonalEdgeStyle;rounded=0;html=1;labelBackgroundColor=#ffffff;startArrow=classic;startFill=1;startSize=4;endSize=4;jettySize=auto;orthogonalLoop=1;strokeColor=#4277BB;strokeWidth=2;fontSize=12;fontColor=#4277BB;" parent="63" source="119" target="118" edge="1">
          <mxGeometry relative="1" as="geometry" />
        </mxCell>
        <mxCell id="119" value="EDGE&lt;div&gt;SERVICES&lt;/div&gt;" style="aspect=fixed;perimeter=ellipsePerimeter;html=1;align=center;shadow=0;image;image=img/lib/ibm/infrastructure/edge_services.svg;labelBackgroundColor=none;strokeColor=none;strokeWidth=2;fillColor=#808080;gradientColor=none;fontSize=12;fontColor=#4277BB;rounded=0;verticalAlign=top;spacingLeft=5;" parent="63" vertex="1">
          <mxGeometry x="150" y="190" width="60" height="60" as="geometry" />
        </mxCell>
        <mxCell id="144" value="" style="swimlane;shadow=0;labelBackgroundColor=#007FFF;strokeColor=#4277BB;fillColor=none;gradientColor=none;fontColor=#000000;align=right;collapsible=0;startSize=0;strokeWidth=3;" parent="63" vertex="1">
          <mxGeometry x="1165" y="69" width="205" height="301" as="geometry" />
        </mxCell>
        <mxCell id="145" value="DEVELOPER AUTOMATION" style="text;html=1;align=left;verticalAlign=middle;fontColor=#4277BB;shadow=0;dashed=0;strokeColor=none;fillColor=none;labelBackgroundColor=none;fontStyle=1;fontSize=14;spacingLeft=5;" parent="144" vertex="1">
          <mxGeometry x="6" y="12" width="194" height="20" as="geometry" />
        </mxCell>
        <mxCell id="146" value="SERVICE&lt;div&gt;BROKER&lt;/div&gt;" style="aspect=fixed;perimeter=ellipsePerimeter;html=1;align=center;shadow=0;dashed=0;image;image=img/lib/ibm/applications/service_broker.svg;labelBackgroundColor=none;strokeColor=#4277BB;strokeWidth=2;fillColor=#E52134;gradientColor=none;fontSize=12;fontColor=#4277BB;" parent="144" vertex="1">
          <mxGeometry x="107" y="61" width="60" height="60" as="geometry" />
        </mxCell>
        <mxCell id="148" value="PROVISION" style="aspect=fixed;perimeter=ellipsePerimeter;html=1;align=center;shadow=0;dashed=0;image;image=img/lib/ibm/devops/provision.svg;labelBackgroundColor=none;strokeColor=#4277BB;strokeWidth=2;fillColor=#E52134;gradientColor=none;fontSize=12;fontColor=#4277BB;" parent="144" vertex="1">
          <mxGeometry x="32" y="132" width="60" height="60" as="geometry" />
        </mxCell>
        <mxCell id="149" value="CONTAINER&lt;div&gt;CATALOG&lt;/div&gt;" style="aspect=fixed;perimeter=ellipsePerimeter;html=1;align=center;shadow=0;dashed=0;image;image=img/lib/ibm/management/content_management.svg;labelBackgroundColor=none;strokeColor=#4277BB;strokeWidth=2;fillColor=#E52134;gradientColor=none;fontSize=12;fontColor=#4277BB;" parent="144" vertex="1">
          <mxGeometry x="107" y="197" width="60" height="60" as="geometry" />
        </mxCell>
        <mxCell id="150" value="ENTERPRISE&lt;div&gt;MIDDLEWARE&lt;/div&gt;" style="aspect=fixed;perimeter=ellipsePerimeter;html=1;align=center;shadow=0;dashed=0;image;image=img/lib/ibm/applications/enterprise_applications.svg;labelBackgroundColor=none;strokeColor=#4277BB;strokeWidth=2;fillColor=#E52134;gradientColor=none;fontSize=12;fontColor=#4277BB;" parent="63" vertex="1">
          <mxGeometry x="1490" y="377" width="60" height="60" as="geometry" />
        </mxCell>
        <mxCell id="151" value="TRANSFORMATION&lt;div&gt;&amp;amp; CONNECTIVITY&lt;/div&gt;" style="aspect=fixed;perimeter=ellipsePerimeter;html=1;align=center;shadow=0;dashed=0;image;image=img/lib/ibm/infrastructure/transformation_connectivity.svg;labelBackgroundColor=none;strokeColor=#4277BB;strokeWidth=2;fillColor=#E52134;gradientColor=none;fontSize=12;fontColor=#4277BB;" parent="63" vertex="1">
          <mxGeometry x="1385" y="445" width="60" height="60" as="geometry" />
        </mxCell>
        <mxCell id="152" value="ENTERPRISE&lt;div&gt;DATA&lt;/div&gt;" style="aspect=fixed;perimeter=ellipsePerimeter;html=1;align=center;shadow=0;dashed=0;image;image=img/lib/ibm/data/enterprise_data.svg;labelBackgroundColor=none;strokeColor=#4277BB;strokeWidth=2;fillColor=#E52134;gradientColor=none;fontSize=12;fontColor=#4277BB;" parent="63" vertex="1">
          <mxGeometry x="1490" y="527" width="60" height="60" as="geometry" />
        </mxCell>
        <mxCell id="159" value="IBM&lt;div&gt;PUBLIC&lt;/div&gt;&lt;div&gt;CLOUD&lt;/div&gt;" style="aspect=fixed;perimeter=ellipsePerimeter;html=1;align=center;shadow=0;image;image=img/lib/ibm/miscellaneous/ibm_public_cloud.svg;labelBackgroundColor=none;strokeColor=none;strokeWidth=2;fillColor=#808080;gradientColor=none;fontSize=12;fontColor=#4277BB;rounded=0;verticalAlign=top;spacingLeft=5;" parent="63" vertex="1">
          <mxGeometry x="45" y="370" width="60" height="46" as="geometry" />
        </mxCell>
        <mxCell id="160" value="IoT&lt;div&gt;CLOUD&lt;/div&gt;" style="aspect=fixed;perimeter=ellipsePerimeter;html=1;align=center;shadow=0;image;image=img/lib/ibm/miscellaneous/ibm_public_cloud.svg;labelBackgroundColor=none;strokeColor=none;strokeWidth=2;fillColor=#808080;gradientColor=none;fontSize=12;fontColor=#4277BB;rounded=0;verticalAlign=top;spacingLeft=5;labelPosition=center;verticalLabelPosition=bottom;" parent="63" vertex="1">
          <mxGeometry x="45" y="474" width="60" height="46" as="geometry" />
        </mxCell>
        <mxCell id="161" value="SERVICES" style="aspect=fixed;perimeter=ellipsePerimeter;html=1;align=center;shadow=0;image;image=img/lib/ibm/blockchain/services.svg;labelBackgroundColor=none;strokeColor=none;strokeWidth=2;fillColor=#808080;gradientColor=none;fontSize=12;fontColor=#4277BB;rounded=0;verticalAlign=top;spacingLeft=5;" parent="63" vertex="1">
          <mxGeometry x="45" y="590" width="60" height="60" as="geometry" />
        </mxCell>
        <mxCell id="162" value="" style="swimlane;shadow=1;labelBackgroundColor=#007FFF;strokeColor=#4277BB;fillColor=none;gradientColor=none;fontColor=#000000;align=right;collapsible=0;startSize=0;strokeWidth=3;swimlaneFillColor=#ffffff;" parent="63" vertex="1">
          <mxGeometry x="280" y="580" width="190" height="140" as="geometry" />
        </mxCell>
        <mxCell id="163" value="RUNTIME" style="aspect=fixed;perimeter=ellipsePerimeter;html=1;align=center;shadow=0;dashed=0;image;image=img/lib/ibm/applications/runtime_services.svg;labelBackgroundColor=none;strokeColor=#4277BB;strokeWidth=2;fillColor=none;gradientColor=none;fontSize=12;fontColor=#4277BB;" parent="162" vertex="1">
          <mxGeometry x="18" y="35" width="60" height="60" as="geometry" />
        </mxCell>
        <mxCell id="164" value="SERVICES" style="aspect=fixed;perimeter=ellipsePerimeter;html=1;align=center;shadow=0;dashed=0;image;image=img/lib/ibm/blockchain/services.svg;labelBackgroundColor=none;strokeColor=#4277BB;strokeWidth=2;fillColor=none;gradientColor=none;fontSize=12;fontColor=#4277BB;" parent="162" vertex="1">
          <mxGeometry x="103" y="35" width="60" height="60" as="geometry" />
        </mxCell>
        <mxCell id="181" value="PaaS (Platform as a Service)" style="text;html=1;align=left;verticalAlign=middle;fontColor=#4277BB;shadow=0;dashed=0;strokeColor=none;fillColor=none;labelBackgroundColor=none;fontStyle=1;fontSize=12;spacingLeft=5;" parent="162" vertex="1">
          <mxGeometry x="5" y="7" width="150" height="20" as="geometry" />
        </mxCell>
        <mxCell id="165" value="" style="swimlane;shadow=1;labelBackgroundColor=#007FFF;strokeColor=#4277BB;fillColor=none;gradientColor=none;fontColor=#000000;align=right;collapsible=0;startSize=0;strokeWidth=3;swimlaneFillColor=#ffffff;" parent="63" vertex="1">
          <mxGeometry x="581" y="580" width="680" height="140" as="geometry" />
        </mxCell>
        <mxCell id="168" value="CONTAINER&lt;div&gt;ORCHESTRATION&lt;/div&gt;" style="aspect=fixed;perimeter=ellipsePerimeter;html=1;align=center;shadow=0;dashed=0;image;image=img/lib/ibm/devops/release_management.svg;labelBackgroundColor=none;strokeColor=#4277BB;strokeWidth=2;fillColor=none;gradientColor=none;fontSize=12;fontColor=#4277BB;" parent="165" vertex="1">
          <mxGeometry x="30" y="34" width="60" height="60" as="geometry" />
        </mxCell>
        <mxCell id="169" value="CLUSTER&lt;div&gt;MANAGEMENT&lt;/div&gt;" style="aspect=fixed;perimeter=ellipsePerimeter;html=1;align=center;shadow=0;dashed=0;image;image=img/lib/ibm/management/cluster_management.svg;labelBackgroundColor=none;strokeColor=#4277BB;strokeWidth=2;fillColor=none;gradientColor=none;fontSize=12;fontColor=#4277BB;" parent="165" vertex="1">
          <mxGeometry x="127" y="34" width="60" height="60" as="geometry" />
        </mxCell>
        <mxCell id="170" value="CONTAINER&lt;div&gt;SECURITY&lt;/div&gt;" style="aspect=fixed;perimeter=ellipsePerimeter;html=1;align=center;shadow=0;dashed=0;image;image=img/lib/ibm/blockchain/certificate_authority.svg;labelBackgroundColor=none;strokeColor=#4277BB;strokeWidth=2;fillColor=none;gradientColor=none;fontSize=12;fontColor=#4277BB;" parent="165" vertex="1">
          <mxGeometry x="220" y="34" width="60" height="60" as="geometry" />
        </mxCell>
        <mxCell id="171" value="IMAGE&lt;div&gt;REPOSITORY&lt;/div&gt;" style="aspect=fixed;perimeter=ellipsePerimeter;html=1;align=center;shadow=0;dashed=0;image;image=img/lib/ibm/data/file_repository.svg;labelBackgroundColor=none;strokeColor=#4277BB;strokeWidth=2;fillColor=none;gradientColor=none;fontSize=12;fontColor=#4277BB;" parent="165" vertex="1">
          <mxGeometry x="320" y="34" width="60" height="60" as="geometry" />
        </mxCell>
        <mxCell id="172" value="ROUTING&lt;div&gt;SERVICES&lt;/div&gt;" style="aspect=fixed;perimeter=ellipsePerimeter;html=1;align=center;shadow=0;dashed=0;image;image=img/lib/ibm/infrastructure/load_balancing_routing.svg;labelBackgroundColor=none;strokeColor=#4277BB;strokeWidth=2;fillColor=none;gradientColor=none;fontSize=12;fontColor=#4277BB;" parent="165" vertex="1">
          <mxGeometry x="415" y="34" width="60" height="60" as="geometry" />
        </mxCell>
        <mxCell id="173" value="MICROSERVICES&lt;div&gt;MESH&lt;/div&gt;" style="aspect=fixed;perimeter=ellipsePerimeter;html=1;align=center;shadow=0;dashed=0;image;image=img/lib/ibm/infrastructure/microservices_mesh.svg;labelBackgroundColor=none;strokeColor=#4277BB;strokeWidth=2;fillColor=none;gradientColor=none;fontSize=12;fontColor=#4277BB;" parent="165" vertex="1">
          <mxGeometry x="530" y="34.00000000000006" width="60" height="60" as="geometry" />
        </mxCell>
        <mxCell id="182" value="CaaS (Container as a Service)" style="text;html=1;align=left;verticalAlign=middle;fontColor=#4277BB;shadow=0;dashed=0;strokeColor=none;fillColor=none;labelBackgroundColor=none;fontStyle=1;fontSize=14;spacingLeft=5;" parent="165" vertex="1">
          <mxGeometry x="52" y="7" width="150" height="20" as="geometry" />
        </mxCell>
        <mxCell id="185" style="edgeStyle=orthogonalEdgeStyle;rounded=0;html=1;exitX=0.75;exitY=0;entryX=0.75;entryY=0;labelBackgroundColor=#ffffff;startArrow=classic;startFill=1;startSize=4;endSize=4;jettySize=auto;orthogonalLoop=1;strokeColor=#EDC11C;strokeWidth=2;fontSize=12;fontColor=#4277BB;" parent="63" source="118" target="118" edge="1">
          <mxGeometry relative="1" as="geometry" />
        </mxCell>
        <mxCell id="190" value="" style="line;strokeWidth=3;direction=south;html=1;shadow=0;labelBackgroundColor=none;fillColor=none;gradientColor=none;fontSize=12;fontColor=#4277BB;align=right;strokeColor=#4277BB;" parent="63" vertex="1">
          <mxGeometry x="175" y="300" width="10" height="650" as="geometry" />
        </mxCell>
        <mxCell id="153" value="" style="swimlane;shadow=0;labelBackgroundColor=#007FFF;strokeColor=#4277BB;fillColor=none;gradientColor=none;fontColor=#000000;align=right;collapsible=0;startSize=0;strokeWidth=3;" parent="63" vertex="1">
          <mxGeometry x="280" y="407" width="850" height="133" as="geometry" />
        </mxCell>
        <mxCell id="154" value="NEXT GENERATION MANAGEMENT" style="text;html=1;align=left;verticalAlign=middle;fontColor=#4277BB;shadow=0;dashed=0;strokeColor=none;fillColor=none;labelBackgroundColor=none;fontStyle=1;fontSize=12;spacingLeft=5;" parent="153" vertex="1">
          <mxGeometry x="6" y="10" width="245" height="20" as="geometry" />
        </mxCell>
        <mxCell id="155" value="CLOUD&lt;div&gt;MANAGEMENT&lt;/div&gt;" style="aspect=fixed;perimeter=ellipsePerimeter;html=1;align=center;shadow=0;dashed=0;image;image=img/lib/ibm/management/cloud_management.svg;labelBackgroundColor=none;strokeColor=#4277BB;strokeWidth=2;fillColor=#E52134;gradientColor=none;fontSize=12;fontColor=#4277BB;" parent="153" vertex="1">
          <mxGeometry x="237" y="24" width="60" height="60" as="geometry" />
        </mxCell>
        <mxCell id="156" value="LOGGING" style="aspect=fixed;perimeter=ellipsePerimeter;html=1;align=center;shadow=0;dashed=0;image;image=img/lib/ibm/infrastructure/monitoring_logging.svg;labelBackgroundColor=none;strokeColor=#4277BB;strokeWidth=2;fillColor=#E52134;gradientColor=none;fontSize=12;fontColor=#4277BB;" parent="153" vertex="1">
          <mxGeometry x="334" y="24" width="60" height="60" as="geometry" />
        </mxCell>
        <mxCell id="157" value="MONITORING" style="aspect=fixed;perimeter=ellipsePerimeter;html=1;align=center;shadow=0;dashed=0;image;image=img/lib/ibm/infrastructure/monitoring.svg;labelBackgroundColor=none;strokeColor=#4277BB;strokeWidth=2;fillColor=#E52134;gradientColor=none;fontSize=12;fontColor=#4277BB;" parent="153" vertex="1">
          <mxGeometry x="431" y="24" width="60" height="60" as="geometry" />
        </mxCell>
        <mxCell id="158" value="DASHBOARD" style="aspect=fixed;perimeter=ellipsePerimeter;html=1;align=center;shadow=0;dashed=0;image;image=img/lib/ibm/infrastructure/dashboard.svg;labelBackgroundColor=none;strokeColor=#4277BB;strokeWidth=2;fillColor=#E52134;gradientColor=none;fontSize=12;fontColor=#4277BB;" parent="153" vertex="1">
          <mxGeometry x="528" y="24" width="60" height="60" as="geometry" />
        </mxCell>
        <mxCell id="197" style="edgeStyle=none;rounded=0;html=1;entryX=0;entryY=0.5;labelBackgroundColor=#ffffff;startArrow=none;startFill=0;startSize=4;endArrow=none;endFill=0;endSize=4;jettySize=auto;orthogonalLoop=1;strokeColor=#4277BB;strokeWidth=2;fontSize=12;fontColor=#4277BB;" parent="63" source="195" target="196" edge="1">
          <mxGeometry relative="1" as="geometry" />
        </mxCell>
        <mxCell id="195" value="" style="shape=partialRectangle;whiteSpace=wrap;html=1;left=0;right=1;top=1;bottom=1;fillColor=none;routingCenterX=-0.5;shadow=0;labelBackgroundColor=#ffffff;strokeColor=#4277BB;strokeWidth=2;fontSize=12;fontColor=#4277BB;align=center;" parent="63" vertex="1">
          <mxGeometry x="460" y="570" width="20" height="160" as="geometry" />
        </mxCell>
        <mxCell id="196" value="" style="shape=partialRectangle;whiteSpace=wrap;html=1;left=1;right=0;top=1;bottom=1;fillColor=none;routingCenterX=-0.5;shadow=0;labelBackgroundColor=#ffffff;strokeColor=#4277BB;strokeWidth=2;fontSize=12;fontColor=#4277BB;align=center;" parent="63" vertex="1">
          <mxGeometry x="569" y="570" width="21" height="160" as="geometry" />
        </mxCell>
        <mxCell id="198" style="edgeStyle=elbowEdgeStyle;rounded=0;html=1;labelBackgroundColor=#ffffff;startArrow=none;startFill=0;startSize=4;endArrow=classic;endFill=1;endSize=4;jettySize=auto;orthogonalLoop=1;strokeColor=#4277BB;strokeWidth=2;fontSize=12;fontColor=#4277BB;entryX=1.003;entryY=0.464;entryPerimeter=0;elbow=vertical;" parent="63" source="180" edge="1">
          <mxGeometry relative="1" as="geometry">
            <mxPoint x="751.425" y="844.7759999999998" as="targetPoint" />
          </mxGeometry>
        </mxCell>
        <mxCell id="199" style="edgeStyle=elbowEdgeStyle;rounded=0;elbow=vertical;html=1;entryX=1.002;entryY=0.472;entryPerimeter=0;labelBackgroundColor=#ffffff;startArrow=none;startFill=0;startSize=4;endArrow=classic;endFill=1;endSize=4;jettySize=auto;orthogonalLoop=1;strokeColor=#4277BB;strokeWidth=2;fontSize=12;fontColor=#4277BB;" parent="63" source="148" target="136" edge="1">
          <mxGeometry relative="1" as="geometry" />
        </mxCell>
        <mxCell id="200" value="" style="line;strokeWidth=3;direction=south;html=1;shadow=0;labelBackgroundColor=none;fillColor=none;gradientColor=none;fontSize=12;fontColor=#4277BB;align=right;strokeColor=#4277BB;" parent="63" vertex="1">
          <mxGeometry x="1410" y="546" width="10" height="404" as="geometry" />
        </mxCell>
        <mxCell id="CDrZ7a42aMioSidAUovB-200" value="" style="swimlane;shadow=0;labelBackgroundColor=#007FFF;strokeColor=#4277BB;fillColor=none;gradientColor=none;fontColor=#000000;align=right;collapsible=0;startSize=0;strokeWidth=3;" parent="1" vertex="1">
          <mxGeometry x="-31" y="1932" width="490" height="159" as="geometry" />
        </mxCell>
        <mxCell id="CDrZ7a42aMioSidAUovB-201" value="Capteurs &lt;br&gt;Bluetooth" style="aspect=fixed;perimeter=ellipsePerimeter;html=1;align=center;shadow=0;dashed=0;image;image=img/lib/ibm/blockchain/existing_enterprise_systems.svg;labelBackgroundColor=none;strokeColor=#4277BB;strokeWidth=2;fillColor=none;gradientColor=none;fontSize=12;fontColor=#4277BB;" parent="CDrZ7a42aMioSidAUovB-200" vertex="1">
          <mxGeometry x="20" y="44" width="60" height="60" as="geometry" />
        </mxCell>
        <mxCell id="CDrZ7a42aMioSidAUovB-202" value="Capteurs &lt;br&gt;LoRaWAN" style="aspect=fixed;perimeter=ellipsePerimeter;html=1;align=center;shadow=0;dashed=0;image;image=img/lib/ibm/infrastructure/infrastructure_services.svg;labelBackgroundColor=none;strokeColor=#4277BB;strokeWidth=2;fillColor=none;gradientColor=none;fontSize=12;fontColor=#4277BB;" parent="CDrZ7a42aMioSidAUovB-200" vertex="1">
          <mxGeometry x="113" y="44" width="60" height="60" as="geometry" />
        </mxCell>
        <mxCell id="CDrZ7a42aMioSidAUovB-242" style="edgeStyle=orthogonalEdgeStyle;rounded=0;orthogonalLoop=1;jettySize=auto;html=1;exitX=0.5;exitY=0;exitDx=0;exitDy=0;shape=link;" parent="CDrZ7a42aMioSidAUovB-200" source="CDrZ7a42aMioSidAUovB-204" edge="1">
          <mxGeometry relative="1" as="geometry">
            <mxPoint x="240" y="-40" as="targetPoint" />
            <Array as="points">
              <mxPoint x="328" y="-40" />
              <mxPoint x="240" y="-40" />
            </Array>
          </mxGeometry>
        </mxCell>
        <mxCell id="CDrZ7a42aMioSidAUovB-204" value="Capteurs &lt;br&gt;Wi-Fi" style="aspect=fixed;perimeter=ellipsePerimeter;html=1;align=center;shadow=0;dashed=0;image;image=img/lib/ibm/infrastructure/load_balancing_routing.svg;labelBackgroundColor=none;strokeColor=#4277BB;strokeWidth=2;fillColor=none;gradientColor=none;fontSize=12;fontColor=#4277BB;" parent="CDrZ7a42aMioSidAUovB-200" vertex="1">
          <mxGeometry x="298" y="44" width="60" height="60" as="geometry" />
        </mxCell>
        <mxCell id="CDrZ7a42aMioSidAUovB-243" style="edgeStyle=orthogonalEdgeStyle;rounded=0;orthogonalLoop=1;jettySize=auto;html=1;shape=link;" parent="CDrZ7a42aMioSidAUovB-200" source="CDrZ7a42aMioSidAUovB-205" edge="1">
          <mxGeometry relative="1" as="geometry">
            <mxPoint x="330" y="-40" as="targetPoint" />
            <Array as="points">
              <mxPoint x="420" y="-40" />
              <mxPoint x="330" y="-40" />
            </Array>
          </mxGeometry>
        </mxCell>
        <mxCell id="CDrZ7a42aMioSidAUovB-205" value="Capteurs &lt;br&gt;Sigfox" style="aspect=fixed;perimeter=ellipsePerimeter;html=1;align=center;shadow=0;dashed=0;image;image=img/lib/ibm/blockchain/certificate_authority.svg;labelBackgroundColor=none;strokeColor=#4277BB;strokeWidth=2;fillColor=none;gradientColor=none;fontSize=12;fontColor=#4277BB;" parent="CDrZ7a42aMioSidAUovB-200" vertex="1">
          <mxGeometry x="390" y="44" width="60" height="60" as="geometry" />
        </mxCell>
        <mxCell id="HCqcwdpQIchrRAqbH9Rb-216" value="Capteurs&lt;br style=&quot;border-color: var(--border-color);&quot;&gt;Zigbee" style="aspect=fixed;perimeter=ellipsePerimeter;html=1;align=center;shadow=0;dashed=0;image;image=img/lib/ibm/infrastructure/infrastructure_services.svg;labelBackgroundColor=none;strokeColor=#4277BB;strokeWidth=2;fillColor=none;gradientColor=none;fontSize=12;fontColor=#4277BB;" parent="CDrZ7a42aMioSidAUovB-200" vertex="1">
          <mxGeometry x="205" y="44" width="60" height="60" as="geometry" />
        </mxCell>
        <mxCell id="CDrZ7a42aMioSidAUovB-300" style="edgeStyle=orthogonalEdgeStyle;rounded=0;orthogonalLoop=1;jettySize=auto;html=1;exitX=0.5;exitY=0;exitDx=0;exitDy=0;entryX=0.5;entryY=1;entryDx=0;entryDy=0;strokeColor=#FF3333;strokeWidth=3;" parent="1" source="CDrZ7a42aMioSidAUovB-229" target="CDrZ7a42aMioSidAUovB-292" edge="1">
          <mxGeometry relative="1" as="geometry" />
        </mxCell>
        <mxCell id="CDrZ7a42aMioSidAUovB-229" value="" style="swimlane;shadow=1;labelBackgroundColor=#007FFF;strokeColor=#4277BB;fillColor=none;gradientColor=none;fontColor=#000000;align=right;collapsible=0;startSize=0;strokeWidth=3;swimlaneFillColor=#ffffff;" parent="1" vertex="1">
          <mxGeometry x="117.5" y="1472" width="190" height="140" as="geometry" />
        </mxCell>
        <mxCell id="CDrZ7a42aMioSidAUovB-232" value="Logiciel Open Source" style="text;html=1;align=left;verticalAlign=middle;fontColor=#4277BB;shadow=0;dashed=0;strokeColor=none;fillColor=none;labelBackgroundColor=none;fontStyle=1;fontSize=12;spacingLeft=5;" parent="CDrZ7a42aMioSidAUovB-229" vertex="1">
          <mxGeometry x="20" y="7" width="150" height="20" as="geometry" />
        </mxCell>
        <mxCell id="CDrZ7a42aMioSidAUovB-230" value="agents &lt;br&gt;IoT" style="aspect=fixed;perimeter=ellipsePerimeter;html=1;align=center;shadow=0;dashed=0;image;image=img/lib/ibm/applications/runtime_services.svg;labelBackgroundColor=none;strokeColor=#4277BB;strokeWidth=2;fillColor=none;gradientColor=none;fontSize=12;fontColor=#4277BB;" parent="CDrZ7a42aMioSidAUovB-229" vertex="1">
          <mxGeometry x="56.5" y="40" width="60" height="60" as="geometry" />
        </mxCell>
        <mxCell id="CDrZ7a42aMioSidAUovB-233" value="" style="shape=partialRectangle;whiteSpace=wrap;html=1;left=0;right=1;top=1;bottom=1;fillColor=none;routingCenterX=-0.5;shadow=0;labelBackgroundColor=#ffffff;strokeColor=#4277BB;strokeWidth=2;fontSize=12;fontColor=#4277BB;align=center;" parent="1" vertex="1">
          <mxGeometry x="297.5" y="1462" width="20" height="160" as="geometry" />
        </mxCell>
        <mxCell id="CDrZ7a42aMioSidAUovB-234" value="" style="shape=partialRectangle;whiteSpace=wrap;html=1;left=0;right=1;top=1;bottom=1;fillColor=none;routingCenterX=-0.5;shadow=0;labelBackgroundColor=#ffffff;strokeColor=#4277BB;strokeWidth=2;fontSize=12;fontColor=#4277BB;align=center;rotation=-180;" parent="1" vertex="1">
          <mxGeometry x="110" y="1462" width="20" height="160" as="geometry" />
        </mxCell>
        <mxCell id="CDrZ7a42aMioSidAUovB-235" value="L1" style="rounded=1;whiteSpace=wrap;html=1;strokeWidth=2;strokeColor=#4277bb;" parent="1" vertex="1">
          <mxGeometry x="497" y="1961.5" width="110" height="100" as="geometry" />
        </mxCell>
        <mxCell id="CDrZ7a42aMioSidAUovB-236" value="L2" style="rounded=1;whiteSpace=wrap;html=1;strokeWidth=2;strokeColor=#4277bb;" parent="1" vertex="1">
          <mxGeometry x="497" y="1492" width="110" height="100" as="geometry" />
        </mxCell>
        <mxCell id="CDrZ7a42aMioSidAUovB-239" style="edgeStyle=orthogonalEdgeStyle;rounded=0;orthogonalLoop=1;jettySize=auto;html=1;entryX=0.5;entryY=0;entryDx=0;entryDy=0;shape=link;" parent="1" target="CDrZ7a42aMioSidAUovB-201" edge="1">
          <mxGeometry relative="1" as="geometry">
            <mxPoint x="109" y="1892" as="sourcePoint" />
            <Array as="points">
              <mxPoint x="109" y="1892" />
              <mxPoint x="19" y="1892" />
            </Array>
          </mxGeometry>
        </mxCell>
        <mxCell id="CDrZ7a42aMioSidAUovB-240" style="edgeStyle=orthogonalEdgeStyle;rounded=0;orthogonalLoop=1;jettySize=auto;html=1;entryX=0.5;entryY=0;entryDx=0;entryDy=0;shape=link;" parent="1" target="CDrZ7a42aMioSidAUovB-202" edge="1">
          <mxGeometry relative="1" as="geometry">
            <mxPoint x="199" y="1892" as="sourcePoint" />
            <mxPoint x="29" y="1936" as="targetPoint" />
            <Array as="points">
              <mxPoint x="199" y="1892" />
              <mxPoint x="112" y="1892" />
            </Array>
          </mxGeometry>
        </mxCell>
        <mxCell id="CDrZ7a42aMioSidAUovB-206" value="Sensors" style="text;html=1;align=left;verticalAlign=middle;fontColor=#4277BB;shadow=0;dashed=0;strokeColor=none;fillColor=none;labelBackgroundColor=none;fontStyle=1;fontSize=12;spacingLeft=5;" parent="1" vertex="1">
          <mxGeometry x="-31" y="2091" width="150" height="20" as="geometry" />
        </mxCell>
        <mxCell id="CDrZ7a42aMioSidAUovB-245" value="exterior &lt;br&gt;Data Base" style="aspect=fixed;perimeter=ellipsePerimeter;html=1;align=center;shadow=0;dashed=0;image;image=img/lib/ibm/data/data_sources.svg;labelBackgroundColor=none;strokeColor=#4277BB;strokeWidth=2;fillColor=none;gradientColor=none;fontSize=12;fontColor=#4277BB;" parent="1" vertex="1">
          <mxGeometry x="-131" y="1981.5" width="60" height="60" as="geometry" />
        </mxCell>
        <mxCell id="CDrZ7a42aMioSidAUovB-248" value="exterior &lt;br&gt;API" style="aspect=fixed;perimeter=ellipsePerimeter;html=1;align=center;shadow=0;dashed=0;image;image=img/lib/ibm/data/data_sources.svg;labelBackgroundColor=none;strokeColor=#4277BB;strokeWidth=2;fillColor=none;gradientColor=none;fontSize=12;fontColor=#4277BB;" parent="1" vertex="1">
          <mxGeometry x="-211" y="1981.5" width="60" height="60" as="geometry" />
        </mxCell>
        <mxCell id="CDrZ7a42aMioSidAUovB-275" value="" style="swimlane;shadow=0;labelBackgroundColor=#007FFF;strokeColor=#4277BB;fillColor=none;gradientColor=none;fontColor=#000000;align=right;collapsible=0;startSize=0;strokeWidth=3;" parent="1" vertex="1">
          <mxGeometry x="-231" y="1932" width="180" height="159" as="geometry" />
        </mxCell>
        <mxCell id="CDrZ7a42aMioSidAUovB-283" value="Differentes Sources" style="text;html=1;align=left;verticalAlign=middle;fontColor=#4277BB;shadow=0;dashed=0;strokeColor=none;fillColor=none;labelBackgroundColor=none;fontStyle=1;fontSize=12;spacingLeft=5;" parent="1" vertex="1">
          <mxGeometry x="-231" y="2091" width="150" height="20" as="geometry" />
        </mxCell>
        <mxCell id="CDrZ7a42aMioSidAUovB-289" value="" style="endArrow=none;html=1;rounded=0;entryX=0.5;entryY=0;entryDx=0;entryDy=0;shape=link;" parent="1" target="CDrZ7a42aMioSidAUovB-245" edge="1">
          <mxGeometry width="50" height="50" relative="1" as="geometry">
            <mxPoint x="-140" y="1892" as="sourcePoint" />
            <mxPoint x="-91" y="1882" as="targetPoint" />
            <Array as="points">
              <mxPoint x="-101" y="1892" />
            </Array>
          </mxGeometry>
        </mxCell>
        <mxCell id="CDrZ7a42aMioSidAUovB-285" style="edgeStyle=orthogonalEdgeStyle;rounded=0;orthogonalLoop=1;jettySize=auto;html=1;exitX=0.5;exitY=0;exitDx=0;exitDy=0;entryX=0;entryY=0.5;entryDx=0;entryDy=0;shape=flexArrow;strokeColor=default;width=4.186046511627907;endSize=2.3953488372093026;endWidth=3.071705426356589;" parent="1" source="CDrZ7a42aMioSidAUovB-248" target="CDrZ7a42aMioSidAUovB-230" edge="1">
          <mxGeometry relative="1" as="geometry">
            <mxPoint x="-130" y="1542" as="targetPoint" />
            <Array as="points">
              <mxPoint x="-181" y="1892" />
              <mxPoint x="-140" y="1892" />
              <mxPoint x="-140" y="1542" />
            </Array>
          </mxGeometry>
        </mxCell>
        <mxCell id="CDrZ7a42aMioSidAUovB-290" value="Pour le context provider, vous pouvez utiliser le context broker NGSI-LD de Fiware pour collecter et transformer les données provenant des capteurs. Les données seront stockées sous forme de documents JSON-LD, qui sont compatibles avec NGSI-LD.&#xa;&#xa;&#xa;Il existe également d&#39;autres context providers qui sont compatibles avec NGSI-LD, tels que Orion-LD et Scorpio. Cependant, ces derniers sont moins couramment utilisés que le context broker NGSI-LD de Fiware.&#xa;&#xa;&#xa;En résumé, le context broker NGSI-LD de Fiware est un choix solide pour un context provider compatible avec NGSI-LD." style="text;html=1;strokeColor=none;fillColor=none;align=center;verticalAlign=middle;whiteSpace=wrap;rounded=0;" parent="1" vertex="1">
          <mxGeometry x="-1590" y="2007" width="665" height="250" as="geometry" />
        </mxCell>
        <mxCell id="CDrZ7a42aMioSidAUovB-292" value="" style="swimlane;shadow=1;labelBackgroundColor=#007FFF;strokeColor=#4277BB;fillColor=none;gradientColor=none;fontColor=#000000;align=right;collapsible=0;startSize=0;strokeWidth=3;swimlaneFillColor=#ffffff;" parent="1" vertex="1">
          <mxGeometry x="118" y="1272" width="190" height="140" as="geometry" />
        </mxCell>
        <mxCell id="CDrZ7a42aMioSidAUovB-294" value="Orion Context &lt;br&gt;Broker" style="aspect=fixed;perimeter=ellipsePerimeter;html=1;align=center;shadow=0;dashed=0;image;image=img/lib/ibm/blockchain/services.svg;labelBackgroundColor=none;strokeColor=#4277BB;strokeWidth=2;fillColor=none;gradientColor=none;fontSize=12;fontColor=#4277BB;" parent="CDrZ7a42aMioSidAUovB-292" vertex="1">
          <mxGeometry x="65" y="35" width="60" height="60" as="geometry" />
        </mxCell>
        <mxCell id="CDrZ7a42aMioSidAUovB-295" value="context provider et &lt;br&gt;context consumer" style="text;html=1;align=center;verticalAlign=middle;fontColor=#4277BB;shadow=0;dashed=0;strokeColor=none;fillColor=none;labelBackgroundColor=none;fontStyle=1;fontSize=12;spacingLeft=5;" parent="CDrZ7a42aMioSidAUovB-292" vertex="1">
          <mxGeometry x="22.5" y="7" width="150" height="20" as="geometry" />
        </mxCell>
        <mxCell id="HCqcwdpQIchrRAqbH9Rb-212" value="SaaS&lt;br&gt;PasS" style="text;whiteSpace=wrap;html=1;fontSize=16;" parent="CDrZ7a42aMioSidAUovB-292" vertex="1">
          <mxGeometry x="12.5" y="46" width="70" height="40" as="geometry" />
        </mxCell>
        <mxCell id="CDrZ7a42aMioSidAUovB-297" value="" style="shape=partialRectangle;whiteSpace=wrap;html=1;left=0;right=1;top=1;bottom=1;fillColor=none;routingCenterX=-0.5;shadow=0;labelBackgroundColor=#ffffff;strokeColor=#4277BB;strokeWidth=2;fontSize=12;fontColor=#4277BB;align=center;" parent="1" vertex="1">
          <mxGeometry x="297.5" y="1262" width="20" height="160" as="geometry" />
        </mxCell>
        <mxCell id="CDrZ7a42aMioSidAUovB-298" value="" style="shape=partialRectangle;whiteSpace=wrap;html=1;left=0;right=1;top=1;bottom=1;fillColor=none;routingCenterX=-0.5;shadow=0;labelBackgroundColor=#ffffff;strokeColor=#4277BB;strokeWidth=2;fontSize=12;fontColor=#4277BB;align=center;rotation=-180;" parent="1" vertex="1">
          <mxGeometry x="110" y="1262" width="20" height="160" as="geometry" />
        </mxCell>
        <mxCell id="CDrZ7a42aMioSidAUovB-304" value="&lt;p style=&quot;line-height: 40%;&quot;&gt;&lt;font style=&quot;font-size: 6px;&quot;&gt;agents &lt;br&gt;IoT&lt;/font&gt;&lt;/p&gt;" style="aspect=fixed;perimeter=ellipsePerimeter;html=1;align=center;shadow=0;dashed=0;image;image=img/lib/ibm/applications/runtime_services.svg;labelBackgroundColor=none;strokeColor=#4277BB;strokeWidth=2;fillColor=none;gradientColor=none;fontSize=12;fontColor=#4277BB;spacing=-12;" parent="1" vertex="1">
          <mxGeometry x="-130" y="1843" width="20" height="20" as="geometry" />
        </mxCell>
        <mxCell id="CDrZ7a42aMioSidAUovB-308" value="&lt;p style=&quot;line-height: 40%;&quot;&gt;&lt;font style=&quot;font-size: 6px;&quot;&gt;agents &lt;br&gt;IoT&lt;/font&gt;&lt;/p&gt;" style="aspect=fixed;perimeter=ellipsePerimeter;html=1;align=center;shadow=0;dashed=0;image;image=img/lib/ibm/applications/runtime_services.svg;labelBackgroundColor=none;strokeColor=#4277BB;strokeWidth=2;fillColor=none;gradientColor=none;fontSize=12;fontColor=#4277BB;spacing=-12;" parent="1" vertex="1">
          <mxGeometry x="220" y="1843" width="20" height="20" as="geometry" />
        </mxCell>
        <mxCell id="CDrZ7a42aMioSidAUovB-309" value="" style="image;aspect=fixed;perimeter=ellipsePerimeter;html=1;align=center;shadow=0;dashed=0;fontColor=#4277BB;labelBackgroundColor=default;fontSize=12;spacingTop=3;image=img/lib/ibm/users/sensor.svg;" parent="1" vertex="1">
          <mxGeometry x="27" y="2095" width="12" height="12" as="geometry" />
        </mxCell>
        <mxCell id="CDrZ7a42aMioSidAUovB-312" value="" style="html=1;verticalLabelPosition=bottom;align=center;labelBackgroundColor=#ffffff;verticalAlign=top;strokeWidth=1;strokeColor=#0080F0;shadow=0;dashed=0;shape=mxgraph.ios7.icons.data;fontSize=8;" parent="1" vertex="1">
          <mxGeometry x="-104.5" y="2096.5" width="7" height="9" as="geometry" />
        </mxCell>
        <mxCell id="HCqcwdpQIchrRAqbH9Rb-200" value="" style="swimlane;shadow=1;labelBackgroundColor=#007FFF;strokeColor=#4277BB;fillColor=none;gradientColor=none;fontColor=#000000;align=right;collapsible=0;startSize=0;strokeWidth=3;swimlaneFillColor=#ffffff;" parent="1" vertex="1">
          <mxGeometry x="118.75" y="1027" width="190" height="164.5" as="geometry" />
        </mxCell>
        <mxCell id="HCqcwdpQIchrRAqbH9Rb-201" value="Cygnus / Apache Flume /&lt;br&gt;Apache NiFi / AWS Kinesis &lt;br&gt;Firehose" style="aspect=fixed;perimeter=ellipsePerimeter;html=1;align=center;shadow=0;dashed=0;image;image=img/lib/ibm/blockchain/services.svg;labelBackgroundColor=none;strokeColor=#4277BB;strokeWidth=2;fillColor=none;gradientColor=none;fontSize=12;fontColor=#4277BB;" parent="HCqcwdpQIchrRAqbH9Rb-200" vertex="1">
          <mxGeometry x="65" y="27" width="60" height="60" as="geometry" />
        </mxCell>
        <mxCell id="HCqcwdpQIchrRAqbH9Rb-202" value="Software Open Source" style="text;html=1;align=center;verticalAlign=middle;fontColor=#4277BB;shadow=0;dashed=0;strokeColor=none;fillColor=none;labelBackgroundColor=none;fontStyle=1;fontSize=12;spacingLeft=5;" parent="HCqcwdpQIchrRAqbH9Rb-200" vertex="1">
          <mxGeometry x="22.5" y="7" width="150" height="20" as="geometry" />
        </mxCell>
        <mxCell id="HCqcwdpQIchrRAqbH9Rb-203" value="" style="shape=partialRectangle;whiteSpace=wrap;html=1;left=0;right=1;top=1;bottom=1;fillColor=none;routingCenterX=-0.5;shadow=0;labelBackgroundColor=#ffffff;strokeColor=#4277BB;strokeWidth=2;fontSize=12;fontColor=#4277BB;align=center;" parent="1" vertex="1">
          <mxGeometry x="298.75" y="1022" width="20" height="180" as="geometry" />
        </mxCell>
        <mxCell id="HCqcwdpQIchrRAqbH9Rb-204" value="" style="shape=partialRectangle;whiteSpace=wrap;html=1;left=0;right=1;top=1;bottom=1;fillColor=none;routingCenterX=-0.5;shadow=0;labelBackgroundColor=#ffffff;strokeColor=#4277BB;strokeWidth=2;fontSize=12;fontColor=#4277BB;align=center;rotation=-180;" parent="1" vertex="1">
          <mxGeometry x="111.25" y="1021" width="20" height="180" as="geometry" />
        </mxCell>
        <mxCell id="HCqcwdpQIchrRAqbH9Rb-206" style="edgeStyle=orthogonalEdgeStyle;rounded=0;orthogonalLoop=1;jettySize=auto;html=1;exitX=0.5;exitY=0;exitDx=0;exitDy=0;strokeColor=#FF3333;strokeWidth=3;entryX=0.5;entryY=1;entryDx=0;entryDy=0;" parent="1" source="CDrZ7a42aMioSidAUovB-292" target="HCqcwdpQIchrRAqbH9Rb-200" edge="1">
          <mxGeometry relative="1" as="geometry">
            <mxPoint x="212.29999999999995" y="1262" as="sourcePoint" />
            <mxPoint x="212" y="1212" as="targetPoint" />
          </mxGeometry>
        </mxCell>
        <mxCell id="HCqcwdpQIchrRAqbH9Rb-221" value="&lt;span style=&quot;color: rgb(0, 0, 0); font-family: Helvetica; font-size: 16px; font-style: normal; font-variant-ligatures: normal; font-variant-caps: normal; font-weight: 400; letter-spacing: normal; orphans: 2; text-align: center; text-indent: 0px; text-transform: none; widows: 2; word-spacing: 0px; -webkit-text-stroke-width: 0px; background-color: rgb(251, 251, 251); text-decoration-thickness: initial; text-decoration-style: initial; text-decoration-color: initial; float: none; display: inline !important;&quot;&gt;EC2 / AWS Fargate / AWS Elastic Beanstalk / AWS App Runner /&lt;span&gt;&amp;nbsp;&lt;/span&gt;&lt;/span&gt;" style="text;whiteSpace=wrap;html=1;fontSize=16;" parent="1" vertex="1">
          <mxGeometry x="-1555" y="1828" width="475" height="40" as="geometry" />
        </mxCell>
        <mxCell id="HCqcwdpQIchrRAqbH9Rb-224" value="Amazon ECS" style="text;whiteSpace=wrap;html=1;fontSize=16;movable=1;resizable=1;rotatable=1;deletable=1;editable=1;locked=0;connectable=1;" parent="1" vertex="1">
          <mxGeometry x="-207" y="972" width="100" height="40" as="geometry" />
        </mxCell>
        <mxCell id="HCqcwdpQIchrRAqbH9Rb-225" value="En ajoutant un context provider avant Orion Context Broker, vous pouvez effectivement améliorer les performances globales du système, car le context provider peut agir comme un tampon intermédiaire pour stocker et prétraiter les données avant de les envoyer à Orion Context Broker. Cela peut permettre une meilleure gestion de la charge et une réduction de la latence." style="text;whiteSpace=wrap;html=1;fontSize=14;" parent="1" vertex="1">
          <mxGeometry x="-1600" y="1890" width="650" height="140" as="geometry" />
        </mxCell>
        <mxCell id="HCqcwdpQIchrRAqbH9Rb-226" value="" style="rounded=0;whiteSpace=wrap;html=1;fontSize=16;fillColor=none;fillStyle=zigzag-line;opacity=90;dashed=1;strokeWidth=2;strokeColor=#3399FF;" parent="1" vertex="1">
          <mxGeometry x="80" y="1232" width="265" height="404" as="geometry" />
        </mxCell>
        <mxCell id="HCqcwdpQIchrRAqbH9Rb-229" value="&lt;span style=&quot;font-family: Helvetica; font-size: 16px; font-style: normal; font-variant-ligatures: normal; font-variant-caps: normal; font-weight: 400; letter-spacing: normal; orphans: 2; text-align: center; text-indent: 0px; text-transform: none; widows: 2; word-spacing: 0px; -webkit-text-stroke-width: 0px; background-color: rgb(251, 251, 251); text-decoration-thickness: initial; text-decoration-style: initial; text-decoration-color: initial; float: none; display: inline !important;&quot;&gt;EC2 / AWS Fargate&lt;/span&gt;" style="text;whiteSpace=wrap;html=1;fontSize=16;fillColor=default;fontColor=#47a3ff;" parent="1" vertex="1">
          <mxGeometry x="80" y="1232" width="160" height="30" as="geometry" />
        </mxCell>
        <mxCell id="HCqcwdpQIchrRAqbH9Rb-233" value="&lt;span style=&quot;font-family: Helvetica; font-size: 16px; font-style: normal; font-variant-ligatures: normal; font-variant-caps: normal; font-weight: 400; letter-spacing: normal; orphans: 2; text-align: center; text-indent: 0px; text-transform: none; widows: 2; word-spacing: 0px; -webkit-text-stroke-width: 0px; background-color: rgb(251, 251, 251); text-decoration-thickness: initial; text-decoration-style: initial; text-decoration-color: initial; float: none; display: inline !important;&quot;&gt;EC2 / AWS Fargate&lt;/span&gt;" style="text;whiteSpace=wrap;html=1;fontSize=16;fillColor=default;fontColor=#47a3ff;" parent="1" vertex="1">
          <mxGeometry x="83" y="993" width="170" height="20" as="geometry" />
        </mxCell>
        <mxCell id="CDrZ7a42aMioSidAUovB-244" style="edgeStyle=orthogonalEdgeStyle;rounded=0;orthogonalLoop=1;jettySize=auto;html=1;shape=flexArrow;endSize=2.2416666666666667;endWidth=3.611111111111111;width=3.888888888888889;exitX=0.5;exitY=0;exitDx=0;exitDy=0;entryX=0.5;entryY=1;entryDx=0;entryDy=0;" parent="1" source="HCqcwdpQIchrRAqbH9Rb-216" target="CDrZ7a42aMioSidAUovB-230" edge="1">
          <mxGeometry relative="1" as="geometry">
            <mxPoint x="220.5" y="1542" as="targetPoint" />
            <mxPoint x="204" y="1962" as="sourcePoint" />
            <Array as="points">
              <mxPoint x="204" y="1590" />
              <mxPoint x="204" y="1590" />
            </Array>
          </mxGeometry>
        </mxCell>
        <mxCell id="HCqcwdpQIchrRAqbH9Rb-236" value="" style="sketch=0;outlineConnect=0;fontColor=#232F3E;gradientColor=none;fillColor=#4D27AA;strokeColor=none;dashed=0;verticalLabelPosition=bottom;verticalAlign=top;align=center;html=1;fontSize=12;fontStyle=0;aspect=fixed;pointerEvents=1;shape=mxgraph.aws4.application_load_balancer;" parent="1" vertex="1">
          <mxGeometry x="4" y="1662" width="60" height="60" as="geometry" />
        </mxCell>
        <mxCell id="HCqcwdpQIchrRAqbH9Rb-237" value="Load Balancer" style="text;html=1;strokeColor=none;fillColor=none;align=center;verticalAlign=middle;whiteSpace=wrap;rounded=0;fontSize=16;" parent="1" vertex="1">
          <mxGeometry x="3" y="1732" width="60" height="30" as="geometry" />
        </mxCell>
        <mxCell id="HCqcwdpQIchrRAqbH9Rb-240" value="" style="rounded=0;whiteSpace=wrap;html=1;fontSize=16;strokeColor=#009900;" parent="1" vertex="1">
          <mxGeometry x="-220" y="622" width="680" height="310" as="geometry" />
        </mxCell>
        <mxCell id="HCqcwdpQIchrRAqbH9Rb-241" value="Public SubNet" style="text;html=1;strokeColor=none;fillColor=none;align=left;verticalAlign=middle;whiteSpace=wrap;rounded=0;fontSize=16;fontColor=#40b140;" parent="1" vertex="1">
          <mxGeometry x="-220" y="932" width="150" height="30" as="geometry" />
        </mxCell>
        <mxCell id="HCqcwdpQIchrRAqbH9Rb-242" value="Private SubNet" style="text;html=1;strokeColor=none;fillColor=none;align=left;verticalAlign=middle;whiteSpace=wrap;rounded=0;fontSize=16;fontColor=#40b140;" parent="1" vertex="1">
          <mxGeometry x="-220" y="592" width="150" height="30" as="geometry" />
        </mxCell>
        <mxCell id="HCqcwdpQIchrRAqbH9Rb-220" value="DATABASES" style="aspect=fixed;perimeter=ellipsePerimeter;html=1;align=center;shadow=0;dashed=0;image;image=img/lib/ibm/data/data_services.svg;labelBackgroundColor=none;strokeColor=#4277BB;strokeWidth=2;fillColor=#E52134;gradientColor=none;fontSize=12;fontColor=#4277BB;" parent="1" vertex="1">
          <mxGeometry x="297.5" y="640" width="60" height="60" as="geometry" />
        </mxCell>
        <mxCell id="HCqcwdpQIchrRAqbH9Rb-218" value="MONITORING" style="aspect=fixed;perimeter=ellipsePerimeter;html=1;align=center;shadow=0;dashed=0;image;image=img/lib/ibm/infrastructure/monitoring.svg;labelBackgroundColor=none;strokeColor=#4277BB;strokeWidth=2;fillColor=#E52134;gradientColor=none;fontSize=12;fontColor=#4277BB;" parent="1" vertex="1">
          <mxGeometry x="-196" y="635" width="60" height="60" as="geometry" />
        </mxCell>
        <mxCell id="HCqcwdpQIchrRAqbH9Rb-219" value="DASHBOARD" style="aspect=fixed;perimeter=ellipsePerimeter;html=1;align=center;shadow=0;dashed=0;image;image=img/lib/ibm/infrastructure/dashboard.svg;labelBackgroundColor=none;strokeColor=#4277BB;strokeWidth=2;fillColor=#E52134;gradientColor=none;fontSize=12;fontColor=#4277BB;" parent="1" vertex="1">
          <mxGeometry x="-96" y="635" width="60" height="60" as="geometry" />
        </mxCell>
        <mxCell id="HCqcwdpQIchrRAqbH9Rb-244" value="VPC" style="text;html=1;strokeColor=none;fillColor=none;align=left;verticalAlign=middle;whiteSpace=wrap;rounded=0;fontSize=16;fontColor=#006633;" parent="1" vertex="1">
          <mxGeometry x="-230" y="552" width="150" height="30" as="geometry" />
        </mxCell>
        <mxCell id="HCqcwdpQIchrRAqbH9Rb-247" value="Region" style="text;html=1;strokeColor=none;fillColor=none;align=left;verticalAlign=middle;whiteSpace=wrap;rounded=0;fontSize=16;fontColor=#2C67DD;" parent="1" vertex="1">
          <mxGeometry x="-240" y="490" width="150" height="30" as="geometry" />
        </mxCell>
        <mxCell id="HCqcwdpQIchrRAqbH9Rb-248" value="" style="sketch=0;points=[[0,0,0],[0.25,0,0],[0.5,0,0],[0.75,0,0],[1,0,0],[0,1,0],[0.25,1,0],[0.5,1,0],[0.75,1,0],[1,1,0],[0,0.25,0],[0,0.5,0],[0,0.75,0],[1,0.25,0],[1,0.5,0],[1,0.75,0]];outlineConnect=0;fontColor=#232F3E;gradientColor=#945DF2;gradientDirection=north;fillColor=#5A30B5;strokeColor=#ffffff;dashed=0;verticalLabelPosition=bottom;verticalAlign=top;align=center;html=1;fontSize=12;fontStyle=0;aspect=fixed;shape=mxgraph.aws4.resourceIcon;resIcon=mxgraph.aws4.cloud_map;" parent="1" vertex="1">
          <mxGeometry x="23" y="532" width="40" height="40" as="geometry" />
        </mxCell>
        <mxCell id="HCqcwdpQIchrRAqbH9Rb-249" value="" style="sketch=0;points=[[0,0,0],[0.25,0,0],[0.5,0,0],[0.75,0,0],[1,0,0],[0,1,0],[0.25,1,0],[0.5,1,0],[0.75,1,0],[1,1,0],[0,0.25,0],[0,0.5,0],[0,0.75,0],[1,0.25,0],[1,0.5,0],[1,0.75,0]];outlineConnect=0;fontColor=#232F3E;gradientColor=#F54749;gradientDirection=north;fillColor=#C7131F;strokeColor=#ffffff;dashed=0;verticalLabelPosition=bottom;verticalAlign=top;align=center;html=1;fontSize=12;fontStyle=0;aspect=fixed;shape=mxgraph.aws4.resourceIcon;resIcon=mxgraph.aws4.secrets_manager;" parent="1" vertex="1">
          <mxGeometry x="257.5" y="532" width="40" height="40" as="geometry" />
        </mxCell>
        <mxCell id="HCqcwdpQIchrRAqbH9Rb-252" value="AWS Cloud Map" style="text;html=1;strokeColor=none;fillColor=none;align=center;verticalAlign=middle;whiteSpace=wrap;rounded=0;fontSize=16;" parent="1" vertex="1">
          <mxGeometry x="64" y="537" width="126" height="30" as="geometry" />
        </mxCell>
        <mxCell id="HCqcwdpQIchrRAqbH9Rb-253" value="AWS Secrets Manager" style="text;html=1;strokeColor=none;fillColor=none;align=center;verticalAlign=middle;whiteSpace=wrap;rounded=0;fontSize=16;" parent="1" vertex="1">
          <mxGeometry x="297.5" y="537" width="182.5" height="30" as="geometry" />
        </mxCell>
        <mxCell id="HCqcwdpQIchrRAqbH9Rb-254" value="&lt;h1 style=&quot;text-align: justify; line-height: 40%;&quot;&gt;&lt;font style=&quot;font-size: 19px;&quot;&gt;Region:&amp;nbsp;&lt;/font&gt;&lt;font style=&quot;font-size: 15px; font-weight: normal;&quot;&gt;Dans AWS, une région est une zone géographique physique où se trouvent les centres de données d&#39;AWS. Chaque région est complètement indépendante des autres et comprend plusieurs zones de disponibilité.&lt;/font&gt;&lt;/h1&gt;&lt;p style=&quot;text-align: justify; font-size: 15px; line-height: 40%;&quot;&gt;&lt;b style=&quot;font-size: 15px;&quot;&gt;donc une région càd des serveur dans la meme data center ?&lt;/b&gt;&lt;/p&gt;&lt;p style=&quot;text-align: justify; font-size: 15px;&quot;&gt;Oui, une région AWS est une zone géographique spécifique où Amazon dispose de plusieurs centres de données (data centers). Les centres de données sont situés dans des endroits différents, mais tous sont connectés à travers un réseau à haute vitesse. Les clients peuvent déployer des ressources AWS dans une région particulière pour offrir une faible latence et une haute disponibilité à leurs utilisateurs finaux dans cette région géographique.&lt;/p&gt;" style="text;html=1;strokeColor=none;fillColor=none;spacing=0;spacingTop=-32;whiteSpace=wrap;overflow=hidden;rounded=0;fontSize=15;verticalAlign=top;spacingBottom=-1;" parent="1" vertex="1">
          <mxGeometry x="760" y="534" width="750" height="180" as="geometry" />
        </mxCell>
        <mxCell id="HCqcwdpQIchrRAqbH9Rb-255" value="&lt;h1 style=&quot;text-align: justify; line-height: 50%;&quot;&gt;&lt;b style=&quot;background-color: initial;&quot;&gt;&lt;font style=&quot;font-size: 19px;&quot;&gt;AWS Cloud Map&lt;/font&gt;&lt;/b&gt;&lt;span style=&quot;background-color: initial; font-size: 15px; font-weight: normal;&quot;&gt; est un service de découverte de ressources qui permet de suivre facilement et dynamiquement les ressources AWS telles que les instances Amazon EC2, les services Amazon ECS, les services AWS Fargate et d&#39;autres services AWS. Il permet de créer un registre privé des noms de ressources pour faciliter la recherche et la résolution de noms.&lt;/span&gt;&lt;/h1&gt;&lt;p style=&quot;text-align: justify;&quot;&gt;&lt;b&gt;&lt;font style=&quot;font-size: 19px;&quot;&gt;AWS Secrets Manager&lt;/font&gt;&lt;/b&gt; est un service de gestion de secrets qui permet de stocker et de récupérer facilement des informations de connexion et d&#39;autres secrets tels que les clés d&#39;API.&amp;nbsp; Il permet également de contrôler les autorisations d&#39;accès et de rotation automatique des secrets.&lt;/p&gt;&lt;span style=&quot;border-color: var(--border-color); text-align: justify;&quot;&gt;&lt;font style=&quot;border-color: var(--border-color);&quot;&gt;&lt;span style=&quot;font-weight: bold; border-color: var(--border-color);&quot;&gt;&lt;font style=&quot;border-color: var(--border-color);&quot;&gt;&lt;span style=&quot;font-size: 19px;&quot;&gt;Les subnets:&amp;nbsp;&lt;/span&gt;&lt;span style=&quot;font-weight: normal;&quot;&gt;&lt;font style=&quot;font-size: 15px;&quot;&gt;Dans un VPC (Virtual Private Cloud) d&#39;AWS, les subnets publics et privés sont utilisés pour fournir des niveaux de sécurité et d&#39;accessibilité différents pour les ressources et les services déployés dans le VPC.&lt;/font&gt;&lt;/span&gt;&lt;/font&gt;&lt;/span&gt;&lt;br&gt;&lt;br&gt;&lt;b&gt;&lt;font style=&quot;font-size: 19px;&quot;&gt;Un VPC (Virtual Private Cloud)&lt;/font&gt;&lt;/b&gt; est un service (AWS) permet de créer un réseau privé virtuel isolé dans le cloud AWS. Dans un VPC, vous pouvez définir votre propre plage d&#39;adresses IP, créer des sous-réseaux, configurer des groupes de sécurité et des tables de routage pour contrôler le trafic réseau entrant et sortant.&lt;br&gt;&lt;/font&gt;&lt;/span&gt;&lt;p style=&quot;text-align: justify;&quot;&gt;&lt;b&gt;&lt;font style=&quot;font-size: 19px;&quot;&gt;Les subnets publics&lt;/font&gt;&lt;/b&gt; sont généralement utilisés pour les ressources qui doivent être accessibles depuis Internet, comme les instances EC2 qui fournissent des services Web. Ces instances ont une adresse IP publique et peuvent être accédées directement depuis Internet.&lt;/p&gt;&lt;p style=&quot;text-align: justify;&quot;&gt;&lt;font style=&quot;font-size: 19px;&quot;&gt;&lt;b&gt;Les subnets privés&lt;/b&gt;&lt;/font&gt; sont généralement utilisés pour les ressources qui ne doivent pas être directement accessibles depuis Internet, comme les instances de base de données et les instances qui fournissent des services internes à l&#39;entreprise. Ces instances n&#39;ont pas d&#39;adresse IP publique et ne peuvent être accédées que par le biais de ressources qui se trouvent dans le même réseau privé&lt;/p&gt;&lt;p style=&quot;text-align: justify;&quot;&gt;&lt;b&gt;&lt;font style=&quot;font-size: 19px;&quot;&gt;Load balancer:&lt;/font&gt;&lt;/b&gt; distribue la charge de travail entre les deux conteneurs et ainsi permettre la communication entre eux.&amp;nbsp;&lt;span style=&quot;background-color: initial;&quot;&gt;L&#39;utilisation de (ALB) est facturée en fonction d&#39;heures de fonctionnement, la quantité de données transférées et les connexions simultanées.&amp;nbsp;&amp;nbsp;&lt;br&gt;&lt;/span&gt;&lt;span style=&quot;background-color: initial;&quot;&gt;&lt;i&gt;On a pas besoin si Fargate sert un rôle distinct et ne nécessite pas d&#39;équilibrage de charge.&lt;/i&gt;&lt;/span&gt;&lt;/p&gt;&lt;p style=&quot;text-align: justify;&quot;&gt;&lt;b&gt;&lt;font style=&quot;font-size: 19px;&quot;&gt;ECS (Elastic Container Service)&lt;/font&gt;&lt;/b&gt; est un service de conteneurisation entièrement géré proposé par AWS. Il permet d&#39;exécuter, de gérer et d&#39;orchestrer des applications conteneurisées sur AWS. ECS prend en charge les conteneurs Docker et les déploie sur des clusters d&#39;instances EC2 ou sur AWS Fargate. En d&#39;autres termes, ECS est un service permettant de gérer des conteneurs, mais ce n&#39;est pas un conteneur en soi.&lt;/p&gt;&lt;p style=&quot;text-align: justify;&quot;&gt;&lt;br&gt;&lt;/p&gt;&lt;p style=&quot;text-align: justify;&quot;&gt;EC2&amp;nbsp;&lt;/p&gt;&lt;p style=&quot;text-align: justify;&quot;&gt;&lt;br&gt;&lt;/p&gt;&lt;p style=&quot;text-align: justify;&quot;&gt;AWS Fargate&lt;/p&gt;&lt;p style=&quot;text-align: justify;&quot;&gt;&lt;br&gt;&lt;/p&gt;&lt;p style=&quot;text-align: justify;&quot;&gt;Agents IOT:&lt;/p&gt;&lt;p style=&quot;text-align: justify;&quot;&gt;&lt;br&gt;&lt;/p&gt;&lt;p style=&quot;text-align: justify;&quot;&gt;Context Provider&lt;/p&gt;&lt;p style=&quot;text-align: justify;&quot;&gt;&lt;br&gt;&lt;/p&gt;&lt;p style=&quot;text-align: justify;&quot;&gt;Orion Contex Broker&lt;/p&gt;&lt;p style=&quot;text-align: justify;&quot;&gt;&lt;br&gt;&lt;/p&gt;&lt;p style=&quot;text-align: justify;&quot;&gt;&lt;br&gt;&lt;/p&gt;&lt;p style=&quot;text-align: justify;&quot;&gt;&lt;b&gt;&lt;font style=&quot;font-size: 19px;&quot;&gt;Cygnus &lt;/font&gt;&lt;/b&gt;est un outil open source pour la collecte de données &lt;i&gt;à partir de capteurs et de systèmes IoT&lt;/i&gt; et leur transfert vers des plateformes de stockage de données.&lt;/p&gt;&lt;p style=&quot;text-align: justify;&quot;&gt;&lt;font style=&quot;font-size: 19px;&quot;&gt;&lt;b&gt;Apache Flume&lt;/b&gt;&lt;/font&gt;&lt;span style=&quot;font-size: 19px;&quot;&gt; &lt;/span&gt;&lt;font style=&quot;font-size: 15px;&quot;&gt;est un outil open source d&#39;ingestion de données qui permet la collecte et le&lt;i&gt; transfert de données massives&lt;/i&gt; en temps réel à partir de sources de données telles que les journaux de serveur, les flux de tweets et les données de capteurs.&lt;/font&gt;&lt;/p&gt;&lt;p style=&quot;text-align: justify;&quot;&gt;&lt;b&gt;&lt;font style=&quot;font-size: 19px;&quot;&gt;Apache NiFi&lt;/font&gt;&lt;/b&gt; est un outil open source de transfert de données en temps réel, conçu pour permettre la conception de &lt;i&gt;flux de données visuels en utilisant une interface graphique glisser-déposer&lt;/i&gt; pour transférer, transformer et traiter des données de différentes sources, principalement utilisé pour la collecte de données en continu et en temps réel provenant de sources telles que les capteurs IoT, les bases de données et les systèmes de messagerie.&lt;/p&gt;&lt;p style=&quot;text-align: justify;&quot;&gt;&lt;br&gt;&lt;/p&gt;&lt;p style=&quot;text-align: justify;&quot;&gt;&lt;br&gt;&lt;/p&gt;" style="text;html=1;strokeColor=none;fillColor=none;spacing=0;spacingTop=-32;whiteSpace=wrap;overflow=hidden;rounded=0;fontSize=15;verticalAlign=top;spacingBottom=-1;" parent="1" vertex="1">
          <mxGeometry x="760" y="724" width="750" height="1310" as="geometry" />
        </mxCell>
        <mxCell id="HCqcwdpQIchrRAqbH9Rb-256" value="AWS IoT Greengrass" style="text;html=1;strokeColor=none;fillColor=none;align=center;verticalAlign=middle;whiteSpace=wrap;rounded=0;fontSize=16;" parent="1" vertex="1">
          <mxGeometry x="-1050" y="1833" width="60" height="30" as="geometry" />
        </mxCell>
        <mxCell id="ajUn3QYX1oUXso2-Ttgx-201" value="Extern" style="shape=curlyBracket;whiteSpace=wrap;html=1;rounded=1;labelPosition=left;verticalLabelPosition=middle;align=right;verticalAlign=middle;fontSize=16;" parent="1" vertex="1">
          <mxGeometry x="-1570" y="1080" width="20" height="160" as="geometry" />
        </mxCell>
        <mxCell id="ajUn3QYX1oUXso2-Ttgx-205" value="Cygnus" style="swimlane;fontStyle=0;childLayout=stackLayout;horizontal=1;startSize=30;horizontalStack=0;resizeParent=1;resizeParentMax=0;resizeLast=0;collapsible=1;marginBottom=0;whiteSpace=wrap;html=1;fontSize=16;" parent="1" vertex="1">
          <mxGeometry x="200" y="730" width="250" height="180" as="geometry">
            <mxRectangle x="510" y="760" width="90" height="30" as="alternateBounds" />
          </mxGeometry>
        </mxCell>
        <mxCell id="ajUn3QYX1oUXso2-Ttgx-206" value="&lt;div style=&quot;border-color: var(--border-color);&quot;&gt;Hadoop Distributed FileS&lt;/div&gt;&lt;div&gt;&lt;br&gt;&lt;/div&gt;" style="text;strokeColor=none;fillColor=none;align=center;verticalAlign=middle;spacingLeft=4;spacingRight=4;overflow=hidden;points=[[0,0.5],[1,0.5]];portConstraint=eastwest;rotatable=0;whiteSpace=wrap;html=1;fontSize=16;" parent="ajUn3QYX1oUXso2-Ttgx-205" vertex="1">
          <mxGeometry y="30" width="250" height="30" as="geometry" />
        </mxCell>
        <mxCell id="ajUn3QYX1oUXso2-Ttgx-207" value="CKAN" style="text;strokeColor=none;fillColor=none;align=center;verticalAlign=middle;spacingLeft=4;spacingRight=4;overflow=hidden;points=[[0,0.5],[1,0.5]];portConstraint=eastwest;rotatable=0;whiteSpace=wrap;html=1;fontSize=16;" parent="ajUn3QYX1oUXso2-Ttgx-205" vertex="1">
          <mxGeometry y="60" width="250" height="30" as="geometry" />
        </mxCell>
        <mxCell id="ajUn3QYX1oUXso2-Ttgx-208" value="&lt;div style=&quot;border-color: var(--border-color);&quot;&gt;MySQL&lt;/div&gt;&lt;div&gt;&lt;br&gt;&lt;/div&gt;" style="text;strokeColor=none;fillColor=none;align=center;verticalAlign=middle;spacingLeft=4;spacingRight=4;overflow=hidden;points=[[0,0.5],[1,0.5]];portConstraint=eastwest;rotatable=0;whiteSpace=wrap;html=1;fontSize=16;" parent="ajUn3QYX1oUXso2-Ttgx-205" vertex="1">
          <mxGeometry y="90" width="250" height="30" as="geometry" />
        </mxCell>
        <mxCell id="ajUn3QYX1oUXso2-Ttgx-211" value="PostgreSQL" style="text;strokeColor=none;fillColor=none;align=center;verticalAlign=middle;spacingLeft=4;spacingRight=4;overflow=hidden;points=[[0,0.5],[1,0.5]];portConstraint=eastwest;rotatable=0;whiteSpace=wrap;html=1;fontSize=16;" parent="ajUn3QYX1oUXso2-Ttgx-205" vertex="1">
          <mxGeometry y="120" width="250" height="30" as="geometry" />
        </mxCell>
        <mxCell id="ajUn3QYX1oUXso2-Ttgx-213" value="MongoDB(DocumentDB)" style="text;strokeColor=none;fillColor=none;align=center;verticalAlign=middle;spacingLeft=4;spacingRight=4;overflow=hidden;points=[[0,0.5],[1,0.5]];portConstraint=eastwest;rotatable=0;whiteSpace=wrap;html=1;fontSize=16;" parent="ajUn3QYX1oUXso2-Ttgx-205" vertex="1">
          <mxGeometry y="150" width="250" height="30" as="geometry" />
        </mxCell>
        <mxCell id="ajUn3QYX1oUXso2-Ttgx-214" value="Autre DB" style="swimlane;fontStyle=0;childLayout=stackLayout;horizontal=1;startSize=30;horizontalStack=0;resizeParent=1;resizeParentMax=0;resizeLast=0;collapsible=1;marginBottom=0;whiteSpace=wrap;html=1;fontSize=16;" parent="1" vertex="1">
          <mxGeometry x="10" y="730" width="180" height="90" as="geometry" />
        </mxCell>
        <mxCell id="ajUn3QYX1oUXso2-Ttgx-215" value="DynamoDB " style="text;strokeColor=none;fillColor=none;align=center;verticalAlign=middle;spacingLeft=4;spacingRight=4;overflow=hidden;points=[[0,0.5],[1,0.5]];portConstraint=eastwest;rotatable=0;whiteSpace=wrap;html=1;fontSize=16;" parent="ajUn3QYX1oUXso2-Ttgx-214" vertex="1">
          <mxGeometry y="30" width="180" height="30" as="geometry" />
        </mxCell>
        <mxCell id="ajUn3QYX1oUXso2-Ttgx-216" value="AWS Free Tier(S3 free)" style="text;strokeColor=none;fillColor=none;align=center;verticalAlign=middle;spacingLeft=4;spacingRight=4;overflow=hidden;points=[[0,0.5],[1,0.5]];portConstraint=eastwest;rotatable=0;whiteSpace=wrap;html=1;fontSize=16;" parent="ajUn3QYX1oUXso2-Ttgx-214" vertex="1">
          <mxGeometry y="60" width="180" height="30" as="geometry" />
        </mxCell>
        <mxCell id="ajUn3QYX1oUXso2-Ttgx-220" value="&lt;h1 style=&quot;text-align: justify; font-size: 15px;&quot;&gt;&lt;font style=&quot;font-size: 15px; font-weight: normal;&quot;&gt;Amazon S3 n&#39;est pas entièrement gratuit, mais il propose une offre de niveau gratuit appelée &quot;AWS Free Tier&quot;. Avec la couche gratuite d&#39;Amazon S3, vous pouvez stocker jusqu&#39;à 5 Go de données et récupérer jusqu&#39;à 20 000 demandes d&#39;objet par mois pendant 12 mois.&amp;nbsp;&lt;/font&gt;&lt;br style=&quot;font-size: 15px;&quot;&gt;&lt;/h1&gt;&lt;div&gt;&lt;font style=&quot;font-size: 15px; font-weight: normal;&quot;&gt;&lt;br&gt;&lt;/font&gt;&lt;/div&gt;&lt;div&gt;&lt;font style=&quot;font-size: 15px; font-weight: normal;&quot;&gt;&lt;br&gt;&lt;/font&gt;&lt;/div&gt;&lt;div&gt;&lt;font style=&quot;&quot;&gt;&lt;div style=&quot;text-align: justify;&quot;&gt;vous pouvez utiliser AWS Budgets en combinaison avec AWS Lambda pour arrêter automatiquement vos ressources AWS lorsque vos dépenses dépassent un seuil spécifique.&lt;/div&gt;&lt;div style=&quot;text-align: justify;&quot;&gt;&lt;br&gt;&lt;/div&gt;&lt;div style=&quot;text-align: justify;&quot;&gt;Pour ce faire, vous pouvez créer une fonction Lambda qui arrête les ressources AWS ciblées (par exemple, vos instances EC2) lorsqu&#39;elle est déclenchée. Vous pouvez ensuite configurer un budget dans AWS Budgets pour surveiller vos coûts, et lorsque vos coûts atteignent un seuil spécifique, AWS Budgets peut déclencher la fonction Lambda pour arrêter automatiquement vos ressources.&lt;/div&gt;&lt;/font&gt;&lt;/div&gt;" style="text;html=1;strokeColor=none;fillColor=none;spacing=5;spacingTop=-20;whiteSpace=wrap;overflow=hidden;rounded=0;fontSize=15;" parent="1" vertex="1">
          <mxGeometry x="-680" y="660" width="400" height="488" as="geometry" />
        </mxCell>
        <mxCell id="ajUn3QYX1oUXso2-Ttgx-225" value="Private SubNet" style="text;html=1;strokeColor=none;fillColor=none;align=left;verticalAlign=middle;whiteSpace=wrap;rounded=0;fontSize=16;fontColor=#40b140;" parent="1" vertex="1">
          <mxGeometry x="-1010" y="724" width="150" height="30" as="geometry" />
        </mxCell>
        <mxCell id="CDrZ7a42aMioSidAUovB-231" value="Context&lt;br style=&quot;border-color: var(--border-color);&quot;&gt;Providers" style="aspect=fixed;perimeter=ellipsePerimeter;html=1;align=center;shadow=0;dashed=0;image;image=img/lib/ibm/blockchain/services.svg;labelBackgroundColor=none;strokeColor=#4277BB;strokeWidth=2;fillColor=none;gradientColor=none;fontSize=12;fontColor=#4277BB;" parent="1" vertex="1">
          <mxGeometry x="14" y="1412" width="60" height="60" as="geometry" />
        </mxCell>
        <mxCell id="mY4sx5cN1qzWW2Ci2DNY-203" value="&lt;h1&gt;Heading&lt;/h1&gt;&lt;p&gt;Lorem ipsum dolor sit amet, consectetur adipisicing elit, sed do eiusmod tempor incididunt ut labore et dolore magna aliqua.&lt;/p&gt;" style="text;html=1;strokeColor=none;fillColor=none;spacing=5;spacingTop=-20;whiteSpace=wrap;overflow=hidden;rounded=0;fontSize=16;" parent="1" vertex="1">
          <mxGeometry x="-508" y="1602" width="190" height="120" as="geometry" />
        </mxCell>
        <mxCell id="lHgg8_kq4FCSIR8R8PC4-207" value="" style="sketch=0;outlineConnect=0;fontColor=#232F3E;gradientColor=none;fillColor=#3F8624;strokeColor=none;dashed=0;verticalLabelPosition=bottom;verticalAlign=top;align=center;html=1;fontSize=12;fontStyle=0;aspect=fixed;pointerEvents=1;shape=mxgraph.aws4.iot_thing_temperature_sensor;" vertex="1" parent="1">
          <mxGeometry x="-1530" y="1100" width="50" height="50" as="geometry" />
        </mxCell>
        <mxCell id="lHgg8_kq4FCSIR8R8PC4-211" value="" style="sketch=0;outlineConnect=0;fontColor=#232F3E;gradientColor=none;fillColor=#3F8624;strokeColor=none;dashed=0;verticalLabelPosition=bottom;verticalAlign=top;align=center;html=1;fontSize=12;fontStyle=0;aspect=fixed;pointerEvents=1;shape=mxgraph.aws4.iot_thing_temperature_sensor;" vertex="1" parent="1">
          <mxGeometry x="-1530" y="1262" width="50" height="50" as="geometry" />
        </mxCell>
        <mxCell id="lHgg8_kq4FCSIR8R8PC4-212" value="" style="sketch=0;outlineConnect=0;fontColor=#232F3E;gradientColor=none;fillColor=#3F8624;strokeColor=none;dashed=0;verticalLabelPosition=bottom;verticalAlign=top;align=center;html=1;fontSize=12;fontStyle=0;aspect=fixed;pointerEvents=1;shape=mxgraph.aws4.iot_thing_temperature_sensor;" vertex="1" parent="1">
          <mxGeometry x="-1530" y="1342" width="50" height="50" as="geometry" />
        </mxCell>
        <mxCell id="lHgg8_kq4FCSIR8R8PC4-213" value="F&amp;nbsp;" style="shape=curlyBracket;whiteSpace=wrap;html=1;rounded=1;labelPosition=left;verticalLabelPosition=middle;align=right;verticalAlign=middle;fontSize=16;" vertex="1" parent="1">
          <mxGeometry x="740" y="1803" width="20" height="218" as="geometry" />
        </mxCell>
        <mxCell id="lHgg8_kq4FCSIR8R8PC4-215" value="" style="sketch=0;outlineConnect=0;fontColor=#232F3E;gradientColor=none;fillColor=#3F8624;strokeColor=none;dashed=0;verticalLabelPosition=bottom;verticalAlign=top;align=center;html=1;fontSize=12;fontStyle=0;aspect=fixed;pointerEvents=1;shape=mxgraph.aws4.iot_thing_humidity_sensor;" vertex="1" parent="1">
          <mxGeometry x="-1530" y="1172" width="50" height="50" as="geometry" />
        </mxCell>
        <mxCell id="lHgg8_kq4FCSIR8R8PC4-216" value="Intern" style="shape=curlyBracket;whiteSpace=wrap;html=1;rounded=1;labelPosition=left;verticalLabelPosition=middle;align=right;verticalAlign=middle;fontSize=16;" vertex="1" parent="1">
          <mxGeometry x="-1575" y="1252" width="20" height="228" as="geometry" />
        </mxCell>
        <mxCell id="lHgg8_kq4FCSIR8R8PC4-217" value="Température" style="text;html=1;strokeColor=none;fillColor=none;align=center;verticalAlign=middle;whiteSpace=wrap;rounded=0;" vertex="1" parent="1">
          <mxGeometry x="-1460" y="1110" width="60" height="30" as="geometry" />
        </mxCell>
        <mxCell id="lHgg8_kq4FCSIR8R8PC4-218" value="Humidity" style="text;html=1;strokeColor=none;fillColor=none;align=center;verticalAlign=middle;whiteSpace=wrap;rounded=0;" vertex="1" parent="1">
          <mxGeometry x="-1470" y="1181" width="60" height="30" as="geometry" />
        </mxCell>
        <mxCell id="lHgg8_kq4FCSIR8R8PC4-219" value="" style="sketch=0;outlineConnect=0;fontColor=#232F3E;gradientColor=none;fillColor=#3F8624;strokeColor=none;dashed=0;verticalLabelPosition=bottom;verticalAlign=top;align=center;html=1;fontSize=12;fontStyle=0;aspect=fixed;pointerEvents=1;shape=mxgraph.aws4.iot_thing_temperature_sensor;" vertex="1" parent="1">
          <mxGeometry x="-1530" y="1422" width="50" height="50" as="geometry" />
        </mxCell>
        <mxCell id="lHgg8_kq4FCSIR8R8PC4-220" value="" style="sketch=0;outlineConnect=0;fontColor=#232F3E;gradientColor=none;fillColor=#3F8624;strokeColor=none;dashed=0;verticalLabelPosition=bottom;verticalAlign=top;align=center;html=1;fontSize=12;fontStyle=0;aspect=fixed;pointerEvents=1;shape=mxgraph.aws4.mqtt_protocol;" vertex="1" parent="1">
          <mxGeometry x="-1275.5" y="1236" width="36" height="36" as="geometry" />
        </mxCell>
        <mxCell id="lHgg8_kq4FCSIR8R8PC4-221" value="&lt;p style=&quot;line-height: 40%;&quot;&gt;&lt;font style=&quot;font-size: 6px;&quot;&gt;agents &lt;br&gt;IoT&lt;/font&gt;&lt;/p&gt;" style="aspect=fixed;perimeter=ellipsePerimeter;html=1;align=center;shadow=0;dashed=0;image;image=img/lib/ibm/applications/runtime_services.svg;labelBackgroundColor=none;strokeColor=#4277BB;strokeWidth=2;fillColor=none;gradientColor=none;fontSize=12;fontColor=#4277BB;spacing=-12;" vertex="1" parent="1">
          <mxGeometry x="-1390" y="1232" width="37" height="37" as="geometry" />
        </mxCell>
        <mxCell id="lHgg8_kq4FCSIR8R8PC4-222" value="" style="endArrow=classic;html=1;rounded=0;" edge="1" parent="1">
          <mxGeometry width="50" height="50" relative="1" as="geometry">
            <mxPoint x="-1340" y="1252" as="sourcePoint" />
            <mxPoint x="-1160" y="1252" as="targetPoint" />
          </mxGeometry>
        </mxCell>
        <mxCell id="lHgg8_kq4FCSIR8R8PC4-223" style="edgeStyle=orthogonalEdgeStyle;rounded=0;orthogonalLoop=1;jettySize=auto;html=1;exitX=0;exitY=0;exitDx=0;exitDy=0;entryX=0;entryY=0.5;entryDx=0;entryDy=0;" edge="1" parent="1" source="lHgg8_kq4FCSIR8R8PC4-221" target="lHgg8_kq4FCSIR8R8PC4-221">
          <mxGeometry relative="1" as="geometry" />
        </mxCell>
        <mxCell id="lHgg8_kq4FCSIR8R8PC4-224" value="" style="image;sketch=0;aspect=fixed;html=1;points=[];align=center;fontSize=12;image=img/lib/mscae/Data_Lake.svg;" vertex="1" parent="1">
          <mxGeometry x="-1146.88" y="1203" width="66.88" height="88" as="geometry" />
        </mxCell>
        <mxCell id="lHgg8_kq4FCSIR8R8PC4-225" value="Data Lake" style="text;html=1;strokeColor=none;fillColor=none;align=center;verticalAlign=middle;whiteSpace=wrap;rounded=0;" vertex="1" parent="1">
          <mxGeometry x="-1143.44" y="1291" width="60" height="30" as="geometry" />
        </mxCell>
        <mxCell id="lHgg8_kq4FCSIR8R8PC4-229" value="&lt;p style=&quot;line-height: 40%;&quot;&gt;&lt;span style=&quot;font-size: 6px;&quot;&gt;Lambda&lt;/span&gt;&lt;/p&gt;" style="aspect=fixed;perimeter=ellipsePerimeter;html=1;align=center;shadow=0;dashed=0;image;image=img/lib/ibm/applications/runtime_services.svg;labelBackgroundColor=none;strokeColor=#4277BB;strokeWidth=2;fillColor=none;gradientColor=none;fontSize=12;fontColor=#4277BB;spacing=-12;" vertex="1" parent="1">
          <mxGeometry x="-1441" y="-208.5" width="37" height="37" as="geometry" />
        </mxCell>
        <mxCell id="lHgg8_kq4FCSIR8R8PC4-230" value="" style="endArrow=classic;html=1;rounded=0;" edge="1" parent="1">
          <mxGeometry width="50" height="50" relative="1" as="geometry">
            <mxPoint x="-1393" y="-181" as="sourcePoint" />
            <mxPoint x="-1213" y="-181" as="targetPoint" />
          </mxGeometry>
        </mxCell>
        <mxCell id="lHgg8_kq4FCSIR8R8PC4-231" value="S3 DATALAKE" style="image;sketch=0;aspect=fixed;html=1;points=[];align=center;fontSize=12;image=img/lib/mscae/Data_Lake.svg;" vertex="1" parent="1">
          <mxGeometry x="-1199.88" y="-230" width="66.88" height="88" as="geometry" />
        </mxCell>
        <mxCell id="lHgg8_kq4FCSIR8R8PC4-232" value="&lt;p style=&quot;line-height: 40%;&quot;&gt;&lt;span style=&quot;font-size: 6px;&quot;&gt;Lambda&lt;/span&gt;&lt;/p&gt;" style="aspect=fixed;perimeter=ellipsePerimeter;html=1;align=center;shadow=0;dashed=0;image;image=img/lib/ibm/applications/runtime_services.svg;labelBackgroundColor=none;strokeColor=#4277BB;strokeWidth=2;fillColor=none;gradientColor=none;fontSize=12;fontColor=#4277BB;spacing=-12;" vertex="1" parent="1">
          <mxGeometry x="-931" y="-209.5" width="37" height="37" as="geometry" />
        </mxCell>
        <mxCell id="lHgg8_kq4FCSIR8R8PC4-233" value="" style="endArrow=classic;html=1;rounded=0;" edge="1" parent="1">
          <mxGeometry width="50" height="50" relative="1" as="geometry">
            <mxPoint x="-1123" y="-180" as="sourcePoint" />
            <mxPoint x="-943" y="-180" as="targetPoint" />
          </mxGeometry>
        </mxCell>
        <mxCell id="lHgg8_kq4FCSIR8R8PC4-234" value="" style="endArrow=classic;html=1;rounded=0;fillColor=#f8cecc;strokeColor=#B80000;" edge="1" parent="1">
          <mxGeometry relative="1" as="geometry">
            <mxPoint x="-1373" y="-200" as="sourcePoint" />
            <mxPoint x="-1233" y="-200" as="targetPoint" />
          </mxGeometry>
        </mxCell>
        <mxCell id="lHgg8_kq4FCSIR8R8PC4-235" value="Envoyer Données" style="edgeLabel;resizable=0;html=1;align=center;verticalAlign=middle;fontColor=#B80000;" connectable="0" vertex="1" parent="lHgg8_kq4FCSIR8R8PC4-234">
          <mxGeometry relative="1" as="geometry" />
        </mxCell>
        <mxCell id="lHgg8_kq4FCSIR8R8PC4-237" value="" style="endArrow=classic;html=1;rounded=0;fillColor=#f8cecc;strokeColor=#B80000;" edge="1" parent="1">
          <mxGeometry relative="1" as="geometry">
            <mxPoint x="-1103" y="-219" as="sourcePoint" />
            <mxPoint x="-963" y="-219" as="targetPoint" />
          </mxGeometry>
        </mxCell>
        <mxCell id="lHgg8_kq4FCSIR8R8PC4-238" value="Envoyer DATA" style="edgeLabel;resizable=0;html=1;align=center;verticalAlign=middle;fontColor=#B80000;" connectable="0" vertex="1" parent="lHgg8_kq4FCSIR8R8PC4-237">
          <mxGeometry relative="1" as="geometry" />
        </mxCell>
        <mxCell id="lHgg8_kq4FCSIR8R8PC4-239" value="" style="endArrow=classic;html=1;rounded=0;fillColor=#f8cecc;strokeColor=#B80000;" edge="1" parent="1">
          <mxGeometry relative="1" as="geometry">
            <mxPoint x="-963" y="-199" as="sourcePoint" />
            <mxPoint x="-1103" y="-199" as="targetPoint" />
          </mxGeometry>
        </mxCell>
        <mxCell id="lHgg8_kq4FCSIR8R8PC4-240" value="Demander DATA" style="edgeLabel;resizable=0;html=1;align=center;verticalAlign=middle;fontColor=#B80000;" connectable="0" vertex="1" parent="lHgg8_kq4FCSIR8R8PC4-239">
          <mxGeometry relative="1" as="geometry" />
        </mxCell>
        <mxCell id="lHgg8_kq4FCSIR8R8PC4-241" value="1" style="ellipse;whiteSpace=wrap;html=1;fillColor=none;strokeColor=#ff0000;fontColor=#FF0000;" vertex="1" parent="1">
          <mxGeometry x="-1373" y="-230" width="20" height="20" as="geometry" />
        </mxCell>
        <mxCell id="lHgg8_kq4FCSIR8R8PC4-242" value="2" style="ellipse;whiteSpace=wrap;html=1;fillColor=none;strokeColor=#ff0000;fontColor=#FF0000;" vertex="1" parent="1">
          <mxGeometry x="-963" y="-210" width="20" height="20" as="geometry" />
        </mxCell>
        <mxCell id="lHgg8_kq4FCSIR8R8PC4-243" value="3" style="ellipse;whiteSpace=wrap;html=1;fillColor=none;strokeColor=#ff0000;fontColor=#FF0000;" vertex="1" parent="1">
          <mxGeometry x="-1123" y="-230" width="20" height="20" as="geometry" />
        </mxCell>
        <mxCell id="lHgg8_kq4FCSIR8R8PC4-244" value="" style="endArrow=classic;html=1;rounded=0;" edge="1" parent="1">
          <mxGeometry width="50" height="50" relative="1" as="geometry">
            <mxPoint x="-883" y="-180" as="sourcePoint" />
            <mxPoint x="-703" y="-180" as="targetPoint" />
          </mxGeometry>
        </mxCell>
        <mxCell id="lHgg8_kq4FCSIR8R8PC4-245" value="" style="endArrow=classic;html=1;rounded=0;fillColor=#f8cecc;strokeColor=#B80000;" edge="1" parent="1">
          <mxGeometry relative="1" as="geometry">
            <mxPoint x="-853" y="-193.5" as="sourcePoint" />
            <mxPoint x="-713" y="-193.5" as="targetPoint" />
          </mxGeometry>
        </mxCell>
        <mxCell id="lHgg8_kq4FCSIR8R8PC4-246" value="Envoyer DATA" style="edgeLabel;resizable=0;html=1;align=center;verticalAlign=middle;fontColor=#B80000;" connectable="0" vertex="1" parent="lHgg8_kq4FCSIR8R8PC4-245">
          <mxGeometry relative="1" as="geometry" />
        </mxCell>
        <mxCell id="lHgg8_kq4FCSIR8R8PC4-247" value="4" style="ellipse;whiteSpace=wrap;html=1;fillColor=none;strokeColor=#ff0000;fontColor=#FF0000;" vertex="1" parent="1">
          <mxGeometry x="-873" y="-204.5" width="20" height="20" as="geometry" />
        </mxCell>
        <mxCell id="lHgg8_kq4FCSIR8R8PC4-251" value="Zone Geo" style="text;html=1;strokeColor=none;fillColor=none;align=center;verticalAlign=middle;whiteSpace=wrap;rounded=0;" vertex="1" parent="1">
          <mxGeometry x="-1452.5" y="-151" width="60" height="30" as="geometry" />
        </mxCell>
        <mxCell id="lHgg8_kq4FCSIR8R8PC4-253" value="Zone Geo" style="text;html=1;strokeColor=none;fillColor=none;align=center;verticalAlign=middle;whiteSpace=wrap;rounded=0;" vertex="1" parent="1">
          <mxGeometry x="-1195" y="-110" width="60" height="30" as="geometry" />
        </mxCell>
        <mxCell id="lHgg8_kq4FCSIR8R8PC4-257" value="Zone Geo" style="text;html=1;strokeColor=none;fillColor=none;align=center;verticalAlign=middle;whiteSpace=wrap;rounded=0;" vertex="1" parent="1">
          <mxGeometry x="-652.75" y="-103.5" width="60" height="30" as="geometry" />
        </mxCell>
        <mxCell id="lHgg8_kq4FCSIR8R8PC4-258" value="" style="rounded=1;whiteSpace=wrap;html=1;" vertex="1" parent="1">
          <mxGeometry x="-702.5" y="-270" width="159.5" height="167.5" as="geometry" />
        </mxCell>
        <mxCell id="lHgg8_kq4FCSIR8R8PC4-259" value="EC2" style="text;html=1;strokeColor=none;fillColor=none;align=center;verticalAlign=middle;whiteSpace=wrap;rounded=0;" vertex="1" parent="1">
          <mxGeometry x="-702.5" y="-300" width="60" height="30" as="geometry" />
        </mxCell>
        <mxCell id="lHgg8_kq4FCSIR8R8PC4-261" value="&lt;br&gt;" style="sketch=0;html=1;verticalAlign=top;labelPosition=center;verticalLabelPosition=bottom;align=center;spacingTop=-6;fontSize=11;fontStyle=1;fontColor=#999999;shape=image;aspect=fixed;imageAspect=0;image=data:image/svg+xml,PHN2ZyB4bWxucz0iaHR0cDovL3d3dy53My5vcmcvMjAwMC9zdmciIHhtbG5zOnY9Imh0dHBzOi8vdmVjdGEuaW8vbmFubyIgd2lkdGg9IjIwIiBoZWlnaHQ9IjIwIiB2aWV3Qm94PSIwIDAgMjAgMjAiPiYjeGE7CTxzdHlsZSB0eXBlPSJ0ZXh0L2NzcyI+JiN4YTsJLnN0MHtmaWxsOiM0Mjg1ZjQ7fSYjeGE7CTwvc3R5bGU+JiN4YTsJPHBhdGggY2xhc3M9InN0MCIgZD0iTTEzLjMzIDB2Mi4zOGgtMi4xNlYwSDguODN2Mi4zOEg2LjY3VjBINC4yOXYyLjM4YTIgMiAwIDAgMC0xLjkxIDEuOTFIMHYyLjM4aDIuMzh2Mi4xNEgwdjIuMzhoMi4zOHYyLjE0SDB2Mi4zOGgyLjM4YTIgMiAwIDAgMCAxLjkxIDEuOTFWMjBoMi4zOHYtMi4zOGgyLjE2VjIwaDIuMzR2LTIuMzhoMi4xNlYyMGgyLjM4di0yLjM4YTIgMiAwIDAgMCAxLjkxLTEuOTFIMjB2LTIuMzhoLTIuMzh2LTIuMTRIMjBWOC44MWgtMi4zOFY2LjY3SDIwVjQuMjloLTIuMzhhMiAyIDAgMCAwLTEuOTEtMS45MVYwem0xLjUzIDE1LjI0SDUuMTRhLjM4LjM4IDAgMCAxLS4zOC0uMzhWNS4xNGEuMzguMzggMCAwIDEgLjM4LS4zOGg5LjcyYS4zOC4zOCAwIDAgMSAuMzguMzh2OS43MmEuMzguMzggMCAwIDEtLjM4LjM4em0tMi4wNy02LjEybC0zLjUgNC44NnYtMy42M0g3LjIybDMuNjEtNC44MXYzLjU4eiIvPiYjeGE7PC9zdmc+;" vertex="1" parent="1">
          <mxGeometry x="-650.75" y="-209.5" width="56" height="56" as="geometry" />
        </mxCell>
        <mxCell id="lHgg8_kq4FCSIR8R8PC4-264" value="" style="rounded=1;whiteSpace=wrap;html=1;" vertex="1" parent="1">
          <mxGeometry x="-1328.5" y="183" width="90" height="130" as="geometry" />
        </mxCell>
        <mxCell id="lHgg8_kq4FCSIR8R8PC4-265" value="" style="rounded=1;whiteSpace=wrap;html=1;" vertex="1" parent="1">
          <mxGeometry x="-1442.5" y="109" width="60" height="70" as="geometry" />
        </mxCell>
        <mxCell id="lHgg8_kq4FCSIR8R8PC4-266" value="&lt;p style=&quot;line-height: 40%;&quot;&gt;&lt;span style=&quot;font-size: 6px;&quot;&gt;Lambda&lt;/span&gt;&lt;/p&gt;" style="aspect=fixed;perimeter=ellipsePerimeter;html=1;align=center;shadow=0;dashed=0;image;image=img/lib/ibm/applications/runtime_services.svg;labelBackgroundColor=none;strokeColor=#4277BB;strokeWidth=2;fillColor=none;gradientColor=none;fontSize=12;fontColor=#4277BB;spacing=-12;" vertex="1" parent="1">
          <mxGeometry x="-1430.5" y="121.5" width="37" height="37" as="geometry" />
        </mxCell>
        <mxCell id="lHgg8_kq4FCSIR8R8PC4-267" value="" style="endArrow=classic;html=1;rounded=0;" edge="1" parent="1">
          <mxGeometry width="50" height="50" relative="1" as="geometry">
            <mxPoint x="-1382.5" y="149" as="sourcePoint" />
            <mxPoint x="-1202.5" y="149" as="targetPoint" />
          </mxGeometry>
        </mxCell>
        <mxCell id="lHgg8_kq4FCSIR8R8PC4-268" value="S3 DATALAKE" style="image;sketch=0;aspect=fixed;html=1;points=[];align=center;fontSize=12;image=img/lib/mscae/Data_Lake.svg;" vertex="1" parent="1">
          <mxGeometry x="-1315.38" y="193" width="66.88" height="88" as="geometry" />
        </mxCell>
        <mxCell id="lHgg8_kq4FCSIR8R8PC4-271" value="" style="endArrow=classic;html=1;rounded=0;fillColor=#f8cecc;strokeColor=#B80000;" edge="1" parent="1">
          <mxGeometry relative="1" as="geometry">
            <mxPoint x="-1362.5" y="130" as="sourcePoint" />
            <mxPoint x="-1222.5" y="130" as="targetPoint" />
          </mxGeometry>
        </mxCell>
        <mxCell id="lHgg8_kq4FCSIR8R8PC4-272" value="Envoyer Données" style="edgeLabel;resizable=0;html=1;align=center;verticalAlign=middle;fontColor=#B80000;" connectable="0" vertex="1" parent="lHgg8_kq4FCSIR8R8PC4-271">
          <mxGeometry relative="1" as="geometry" />
        </mxCell>
        <mxCell id="lHgg8_kq4FCSIR8R8PC4-277" value="1" style="ellipse;whiteSpace=wrap;html=1;fillColor=none;strokeColor=#ff0000;fontColor=#FF0000;" vertex="1" parent="1">
          <mxGeometry x="-1362.5" y="100" width="20" height="20" as="geometry" />
        </mxCell>
        <mxCell id="lHgg8_kq4FCSIR8R8PC4-284" value="Zone Geo" style="text;html=1;strokeColor=none;fillColor=none;align=center;verticalAlign=middle;whiteSpace=wrap;rounded=0;" vertex="1" parent="1">
          <mxGeometry x="-1442" y="179" width="60" height="30" as="geometry" />
        </mxCell>
        <mxCell id="lHgg8_kq4FCSIR8R8PC4-285" value="Zone Geo" style="text;html=1;strokeColor=none;fillColor=none;align=center;verticalAlign=middle;whiteSpace=wrap;rounded=0;" vertex="1" parent="1">
          <mxGeometry x="-1307.5" y="592" width="60" height="30" as="geometry" />
        </mxCell>
        <mxCell id="lHgg8_kq4FCSIR8R8PC4-286" value="Zone Geo" style="text;html=1;strokeColor=none;fillColor=none;align=center;verticalAlign=middle;whiteSpace=wrap;rounded=0;" vertex="1" parent="1">
          <mxGeometry x="-670" y="585" width="60" height="30" as="geometry" />
        </mxCell>
        <mxCell id="lHgg8_kq4FCSIR8R8PC4-288" value="EC2" style="text;html=1;strokeColor=none;fillColor=none;align=center;verticalAlign=middle;whiteSpace=wrap;rounded=0;" vertex="1" parent="1">
          <mxGeometry x="-1183" y="30" width="60" height="30" as="geometry" />
        </mxCell>
        <mxCell id="lHgg8_kq4FCSIR8R8PC4-289" value="&lt;br&gt;" style="sketch=0;html=1;verticalAlign=middle;labelPosition=center;verticalLabelPosition=bottom;align=center;spacingTop=-6;fontSize=11;fontStyle=1;fontColor=#999999;shape=image;aspect=fixed;imageAspect=0;image=data:image/svg+xml,PHN2ZyB4bWxucz0iaHR0cDovL3d3dy53My5vcmcvMjAwMC9zdmciIHhtbG5zOnY9Imh0dHBzOi8vdmVjdGEuaW8vbmFubyIgd2lkdGg9IjIwIiBoZWlnaHQ9IjIwIiB2aWV3Qm94PSIwIDAgMjAgMjAiPiYjeGE7CTxzdHlsZSB0eXBlPSJ0ZXh0L2NzcyI+JiN4YTsJLnN0MHtmaWxsOiM0Mjg1ZjQ7fSYjeGE7CTwvc3R5bGU+JiN4YTsJPHBhdGggY2xhc3M9InN0MCIgZD0iTTEzLjMzIDB2Mi4zOGgtMi4xNlYwSDguODN2Mi4zOEg2LjY3VjBINC4yOXYyLjM4YTIgMiAwIDAgMC0xLjkxIDEuOTFIMHYyLjM4aDIuMzh2Mi4xNEgwdjIuMzhoMi4zOHYyLjE0SDB2Mi4zOGgyLjM4YTIgMiAwIDAgMCAxLjkxIDEuOTFWMjBoMi4zOHYtMi4zOGgyLjE2VjIwaDIuMzR2LTIuMzhoMi4xNlYyMGgyLjM4di0yLjM4YTIgMiAwIDAgMCAxLjkxLTEuOTFIMjB2LTIuMzhoLTIuMzh2LTIuMTRIMjBWOC44MWgtMi4zOFY2LjY3SDIwVjQuMjloLTIuMzhhMiAyIDAgMCAwLTEuOTEtMS45MVYwem0xLjUzIDE1LjI0SDUuMTRhLjM4LjM4IDAgMCAxLS4zOC0uMzhWNS4xNGEuMzguMzggMCAwIDEgLjM4LS4zOGg5LjcyYS4zOC4zOCAwIDAgMSAuMzguMzh2OS43MmEuMzguMzggMCAwIDEtLjM4LjM4em0tMi4wNy02LjEybC0zLjUgNC44NnYtMy42M0g3LjIybDMuNjEtNC44MXYzLjU4eiIvPiYjeGE7PC9zdmc+;" vertex="1" parent="1">
          <mxGeometry x="-1136" y="120" width="56" height="56" as="geometry" />
        </mxCell>
        <mxCell id="lHgg8_kq4FCSIR8R8PC4-290" value="" style="endArrow=classic;html=1;rounded=0;fillColor=#f8cecc;strokeColor=#B80000;entryX=0.5;entryY=0;entryDx=0;entryDy=0;" edge="1" parent="1" target="lHgg8_kq4FCSIR8R8PC4-264">
          <mxGeometry relative="1" as="geometry">
            <mxPoint x="-1362.5" y="130" as="sourcePoint" />
            <mxPoint x="-1213" y="150" as="targetPoint" />
          </mxGeometry>
        </mxCell>
        <mxCell id="lHgg8_kq4FCSIR8R8PC4-291" value="Envoyer Données" style="edgeLabel;resizable=0;html=1;align=center;verticalAlign=middle;fontColor=#B80000;" connectable="0" vertex="1" parent="lHgg8_kq4FCSIR8R8PC4-290">
          <mxGeometry relative="1" as="geometry" />
        </mxCell>
        <mxCell id="lHgg8_kq4FCSIR8R8PC4-293" value="Besoin de Synchronisation" style="text;html=1;strokeColor=none;fillColor=none;align=center;verticalAlign=middle;whiteSpace=wrap;rounded=0;fontSize=14;fontColor=#FF0000;fontStyle=1" vertex="1" parent="1">
          <mxGeometry x="-1468" y="-290" width="209.5" height="30" as="geometry" />
        </mxCell>
        <mxCell id="lHgg8_kq4FCSIR8R8PC4-294" value="Pas Besoin de Synchronisation" style="text;html=1;strokeColor=none;fillColor=none;align=center;verticalAlign=middle;whiteSpace=wrap;rounded=0;fontSize=14;fontColor=#FF0000;fontStyle=1" vertex="1" parent="1">
          <mxGeometry x="-1460" y="41" width="247" height="30" as="geometry" />
        </mxCell>
        <mxCell id="lHgg8_kq4FCSIR8R8PC4-296" value="" style="swimlane;shadow=0;labelBackgroundColor=#007FFF;strokeColor=#4277BB;fillColor=none;gradientColor=none;fontColor=#000000;align=right;collapsible=0;startSize=0;strokeWidth=3;" vertex="1" parent="1">
          <mxGeometry x="-1481.5" y="-334.5" width="961.5" height="294.5" as="geometry" />
        </mxCell>
        <mxCell id="lHgg8_kq4FCSIR8R8PC4-303" value="Solution 1" style="text;html=1;align=left;verticalAlign=middle;fontColor=#4277BB;shadow=0;dashed=0;strokeColor=none;fillColor=none;labelBackgroundColor=none;fontStyle=1;fontSize=13;spacingLeft=5;" vertex="1" parent="lHgg8_kq4FCSIR8R8PC4-296">
          <mxGeometry x="6" y="8.00000000000025" width="150" height="20" as="geometry" />
        </mxCell>
        <mxCell id="lHgg8_kq4FCSIR8R8PC4-304" value="" style="swimlane;shadow=0;labelBackgroundColor=#007FFF;strokeColor=#4277BB;fillColor=none;gradientColor=none;fontColor=#000000;align=right;collapsible=0;startSize=0;strokeWidth=3;" vertex="1" parent="1">
          <mxGeometry x="-1480" y="0.75" width="961.5" height="339.25" as="geometry" />
        </mxCell>
        <mxCell id="lHgg8_kq4FCSIR8R8PC4-305" value="Solution 2" style="text;html=1;align=left;verticalAlign=middle;fontColor=#4277BB;shadow=0;dashed=0;strokeColor=none;fillColor=none;labelBackgroundColor=none;fontStyle=1;fontSize=13;spacingLeft=5;" vertex="1" parent="lHgg8_kq4FCSIR8R8PC4-304">
          <mxGeometry x="6" y="8.00000000000025" width="150" height="20" as="geometry" />
        </mxCell>
      </root>
    </mxGraphModel>
  </diagram>
</mxfile>
